<svg preserveAspectRatio="none" width="100%" height="100%" overflow="visible" style="display: block;" viewBox="0 0 23.3122 16" fill="none" xmlns="http://www.w3.org/2000/svg">
<g id="Sign">
<g id="Group">
<path id="Vector" opacity="0.2" d="M5.02665 0.685196C5.02665 1.06183 4.71809 1.37039 4.34146 1.37039C3.96483 1.37039 3.65626 1.06183 3.65626 0.685196C3.65626 0.308565 3.96483 0 4.34146 0C4.71809 0 5.02665 0.308565 5.02665 0.685196Z" fill="var(--fill-0, #B2030A)"/>
<path id="Vector_2" opacity="0.47" d="M6.85473 0.685278C6.85473 1.06191 6.54617 1.37047 6.16954 1.37047C5.79291 1.37047 5.48435 1.06191 5.48435 0.685278C5.48435 0.308647 5.79291 8.2016e-05 6.16954 8.2016e-05C6.54617 8.2016e-05 6.85473 0.308647 6.85473 0.685278Z" fill="var(--fill-0, #B2030A)"/>
<path id="Vector_3" opacity="0.73" d="M8.68289 0.685278C8.68289 1.06191 8.37433 1.37047 7.99769 1.37047C7.62106 1.37047 7.3125 1.06191 7.3125 0.685278C7.3125 0.308647 7.61653 8.2016e-05 7.99769 8.2016e-05C8.37886 8.2016e-05 8.68289 0.308647 8.68289 0.685278Z" fill="var(--fill-0, #B2030A)"/>
<path id="Vector_4" d="M10.511 0.685278C10.511 1.06191 10.2025 1.37047 9.82582 1.37047C9.44919 1.37047 9.14063 1.06191 9.14063 0.685278C9.14063 0.308647 9.44465 8.2016e-05 9.82582 8.2016e-05C10.207 8.2016e-05 10.511 0.308647 10.511 0.685278Z" fill="var(--fill-0, #B2030A)"/>
</g>
<path id="Vector_5" d="M12.3408 0.685217C12.3408 1.06185 12.0323 1.37041 11.6556 1.37041C11.279 1.37041 10.9705 1.06185 10.9705 0.685217C10.9705 0.308586 11.279 2.09808e-05 11.6556 2.09808e-05C12.0323 2.09808e-05 12.3408 0.308586 12.3408 0.685217Z" fill="var(--fill-0, white)"/>
<path id="Vector_6" d="M14.169 0.685217C14.169 1.06185 13.8649 1.37041 13.4838 1.37041C13.1026 1.37041 12.7986 1.06185 12.7986 0.685217C12.7986 0.308586 13.1071 2.09808e-05 13.4838 2.09808e-05C13.8604 2.09808e-05 14.169 0.308586 14.169 0.685217Z" fill="var(--fill-0, white)"/>
<path id="Vector_7" d="M15.9971 0.685217C15.9971 1.06185 15.6885 1.37041 15.3119 1.37041C14.9353 1.37041 14.6267 1.06185 14.6267 0.685217C14.6267 0.308586 14.9353 2.09808e-05 15.3119 2.09808e-05C15.6885 2.09808e-05 15.9971 0.308586 15.9971 0.685217Z" fill="var(--fill-0, white)"/>
<g id="Group_2">
<path id="Vector_8" opacity="0.2" d="M3.19852 2.51396C3.19852 2.89513 2.88996 3.19915 2.51332 3.19915C2.13669 3.19915 1.82813 2.89059 1.82813 2.51396C1.82813 2.13733 2.13669 1.82876 2.51332 1.82876C2.88996 1.82876 3.19852 2.13733 3.19852 2.51396Z" fill="var(--fill-0, #F23508)"/>
<path id="Vector_9" opacity="0.36" d="M5.02661 2.51395C5.02661 2.89512 4.71804 3.19915 4.34141 3.19915C3.96478 3.19915 3.65622 2.89058 3.65622 2.51395C3.65622 2.13732 3.96478 1.82876 4.34141 1.82876C4.71804 1.82876 5.02661 2.13732 5.02661 2.51395Z" fill="var(--fill-0, #F23508)"/>
<path id="Vector_10" opacity="0.52" d="M6.85473 2.51395C6.85473 2.89512 6.54617 3.19915 6.16954 3.19915C5.79291 3.19915 5.48435 2.89058 5.48435 2.51395C5.48435 2.13732 5.79291 1.82876 6.16954 1.82876C6.54617 1.82876 6.85473 2.13732 6.85473 2.51395Z" fill="var(--fill-0, #F23508)"/>
<path id="Vector_11" opacity="0.68" d="M8.68289 2.51395C8.68289 2.89512 8.37433 3.19915 7.99769 3.19915C7.62106 3.19915 7.3125 2.89058 7.3125 2.51395C7.3125 2.13732 7.62106 1.82876 7.99769 1.82876C8.37433 1.82876 8.68289 2.13732 8.68289 2.51395Z" fill="var(--fill-0, #F23508)"/>
<path id="Vector_12" opacity="0.84" d="M10.5136 2.51395C10.5136 2.89512 10.205 3.19915 9.82841 3.19915C9.45178 3.19915 9.14322 2.89058 9.14322 2.51395C9.14322 2.13732 9.45178 1.82876 9.82841 1.82876C10.205 1.82876 10.5136 2.13732 10.5136 2.51395Z" fill="var(--fill-0, #F23508)"/>
<path id="Vector_13" d="M12.3417 2.51395C12.3417 2.89512 12.0332 3.19915 11.6565 3.19915C11.2799 3.19915 10.9713 2.89058 10.9713 2.51395C10.9713 2.13732 11.2799 1.82876 11.6565 1.82876C12.0332 1.82876 12.3417 2.13732 12.3417 2.51395Z" fill="var(--fill-0, #F23508)"/>
</g>
<path id="Vector_14" d="M14.169 2.51401C14.169 2.89518 13.8649 3.19921 13.4838 3.19921C13.1026 3.19921 12.7986 2.89064 12.7986 2.51401C12.7986 2.13738 13.1071 1.82882 13.4838 1.82882C13.8604 1.82882 14.169 2.13738 14.169 2.51401Z" fill="var(--fill-0, white)"/>
<path id="Vector_15" d="M15.9971 2.51401C15.9971 2.89518 15.6885 3.19921 15.3119 3.19921C14.9353 3.19921 14.6267 2.89064 14.6267 2.51401C14.6267 2.13738 14.9353 1.82882 15.3119 1.82882C15.6885 1.82882 15.9971 2.13738 15.9971 2.51401Z" fill="var(--fill-0, white)"/>
<path id="Vector_16" d="M17.8278 2.51401C17.8278 2.89518 17.5238 3.19921 17.1427 3.19921C16.7615 3.19921 16.4575 2.89064 16.4575 2.51401C16.4575 2.13738 16.766 1.82882 17.1427 1.82882C17.5193 1.82882 17.8278 2.13738 17.8278 2.51401Z" fill="var(--fill-0, white)"/>
<g id="Group_3">
<path id="Vector_17" opacity="0.2" d="M5.02665 4.34278C5.02665 4.72395 4.71809 5.03251 4.34146 5.03251C3.96483 5.03251 3.65626 4.72395 3.65626 4.34278C3.65626 3.96161 3.96483 3.65759 4.34146 3.65759C4.71809 3.65759 5.02665 3.96161 5.02665 4.34278Z" fill="var(--fill-0, #EBC504)"/>
<path id="Vector_18" opacity="0.36" d="M6.85473 4.34281C6.85473 4.72398 6.54617 5.03254 6.16954 5.03254C5.79291 5.03254 5.48435 4.72398 5.48435 4.34281C5.48435 3.96164 5.79291 3.65761 6.16954 3.65761C6.54617 3.65761 6.85473 3.96164 6.85473 4.34281Z" fill="var(--fill-0, #EBC504)"/>
<path id="Vector_19" opacity="0.52" d="M8.68289 4.34281C8.68289 4.72398 8.37433 5.03254 7.99769 5.03254C7.62106 5.03254 7.3125 4.72398 7.3125 4.34281C7.3125 3.96164 7.62106 3.65761 7.99769 3.65761C8.37433 3.65761 8.68289 3.96164 8.68289 4.34281Z" fill="var(--fill-0, #EBC504)"/>
<path id="Vector_20" opacity="0.68" d="M10.511 4.34281C10.511 4.72398 10.2025 5.03254 9.82582 5.03254C9.44919 5.03254 9.14063 4.72398 9.14063 4.34281C9.14063 3.96164 9.44919 3.65761 9.82582 3.65761C10.2025 3.65761 10.511 3.96164 10.511 4.34281Z" fill="var(--fill-0, #EBC504)"/>
<path id="Vector_21" opacity="0.84" d="M12.3417 4.34281C12.3417 4.72398 12.0377 5.03254 11.6565 5.03254C11.2754 5.03254 10.9713 4.72398 10.9713 4.34281C10.9713 3.96164 11.2799 3.65761 11.6565 3.65761C12.0332 3.65761 12.3417 3.96164 12.3417 4.34281Z" fill="var(--fill-0, #EBC504)"/>
<path id="Vector_22" d="M14.1673 4.34281C14.1673 4.72398 13.8632 5.03254 13.4821 5.03254C13.1009 5.03254 12.7969 4.72398 12.7969 4.34281C12.7969 3.96164 13.1054 3.65761 13.4821 3.65761C13.8587 3.65761 14.1673 3.96164 14.1673 4.34281Z" fill="var(--fill-0, #EBC504)"/>
</g>
<path id="Vector_23" d="M15.9971 4.34275C15.9971 4.72392 15.6885 5.03248 15.3119 5.03248C14.9353 5.03248 14.6267 4.72392 14.6267 4.34275C14.6267 3.96158 14.9353 3.65755 15.3119 3.65755C15.6885 3.65755 15.9971 3.96158 15.9971 4.34275Z" fill="var(--fill-0, white)"/>
<path id="Vector_24" d="M17.8278 4.34275C17.8278 4.72392 17.5238 5.03248 17.1427 5.03248C16.7615 5.03248 16.4575 4.72392 16.4575 4.34275C16.4575 3.96158 16.766 3.65755 17.1427 3.65755C17.5193 3.65755 17.8278 3.96158 17.8278 4.34275Z" fill="var(--fill-0, white)"/>
<path id="Vector_25" d="M19.656 4.34275C19.656 4.72392 19.3519 5.03248 18.9708 5.03248C18.5896 5.03248 18.2856 4.72392 18.2856 4.34275C18.2856 3.96158 18.5941 3.65755 18.9708 3.65755C19.3474 3.65755 19.656 3.96158 19.656 4.34275Z" fill="var(--fill-0, white)"/>
<g id="Group_4">
<path id="Vector_26" opacity="0.2" d="M3.19852 6.1712C3.19852 6.54783 2.88996 6.85639 2.51332 6.85639C2.13669 6.85639 1.82813 6.54783 1.82813 6.1712C1.82813 5.79457 2.13669 5.486 2.51332 5.486C2.88996 5.486 3.19852 5.79457 3.19852 6.1712Z" fill="var(--fill-0, #BCFF04)"/>
<path id="Vector_27" opacity="0.31" d="M5.02661 6.17118C5.02661 6.54781 4.71804 6.85637 4.34141 6.85637C3.96478 6.85637 3.65622 6.54781 3.65622 6.17118C3.65622 5.79455 3.96478 5.48598 4.34141 5.48598C4.71804 5.48598 5.02661 5.79455 5.02661 6.17118Z" fill="var(--fill-0, #BCFF04)"/>
<path id="Vector_28" opacity="0.43" d="M6.85473 6.17118C6.85473 6.54781 6.54617 6.85637 6.16954 6.85637C5.79291 6.85637 5.48435 6.54781 5.48435 6.17118C5.48435 5.79455 5.79291 5.48598 6.16954 5.48598C6.54617 5.48598 6.85473 5.79455 6.85473 6.17118Z" fill="var(--fill-0, #BCFF04)"/>
<path id="Vector_29" opacity="0.54" d="M8.68289 6.17118C8.68289 6.54781 8.37433 6.85637 7.99769 6.85637C7.62106 6.85637 7.3125 6.54781 7.3125 6.17118C7.3125 5.79455 7.62106 5.48598 7.99769 5.48598C8.37433 5.48598 8.68289 5.79455 8.68289 6.17118Z" fill="var(--fill-0, #BCFF04)"/>
<path id="Vector_30" opacity="0.66" d="M10.5136 6.17118C10.5136 6.54781 10.205 6.85637 9.82841 6.85637C9.45178 6.85637 9.14322 6.54781 9.14322 6.17118C9.14322 5.79455 9.45178 5.48598 9.82841 5.48598C10.205 5.48598 10.5136 5.79455 10.5136 6.17118Z" fill="var(--fill-0, #BCFF04)"/>
<path id="Vector_31" opacity="0.77" d="M12.3417 6.17118C12.3417 6.54781 12.0332 6.85637 11.6565 6.85637C11.2799 6.85637 10.9713 6.54781 10.9713 6.17118C10.9713 5.79455 11.2799 5.48598 11.6565 5.48598C12.0332 5.48598 12.3417 5.79455 12.3417 6.17118Z" fill="var(--fill-0, #BCFF04)"/>
<path id="Vector_32" opacity="0.89" d="M14.1699 6.17118C14.1699 6.54781 13.8613 6.85637 13.4847 6.85637C13.108 6.85637 12.7995 6.54781 12.7995 6.17118C12.7995 5.79455 13.108 5.48598 13.4847 5.48598C13.8613 5.48598 14.1699 5.79455 14.1699 6.17118Z" fill="var(--fill-0, #BCFF04)"/>
<path id="Vector_33" d="M16.0006 6.17118C16.0006 6.54781 15.692 6.85637 15.3154 6.85637C14.9388 6.85637 14.6302 6.54781 14.6302 6.17118C14.6302 5.79455 14.9388 5.48598 15.3154 5.48598C15.692 5.48598 16.0006 5.79455 16.0006 6.17118Z" fill="var(--fill-0, #BCFF04)"/>
</g>
<path id="Vector_34" d="M17.8278 6.17124C17.8278 6.54787 17.5238 6.85644 17.1427 6.85644C16.7615 6.85644 16.4575 6.54787 16.4575 6.17124C16.4575 5.79461 16.766 5.48604 17.1427 5.48604C17.5193 5.48604 17.8278 5.79461 17.8278 6.17124Z" fill="var(--fill-0, white)"/>
<path id="Vector_35" d="M19.656 6.17124C19.656 6.54787 19.3519 6.85644 18.9708 6.85644C18.5896 6.85644 18.2856 6.54787 18.2856 6.17124C18.2856 5.79461 18.5941 5.48604 18.9708 5.48604C19.3474 5.48604 19.656 5.79461 19.656 6.17124Z" fill="var(--fill-0, white)"/>
<path id="Vector_36" d="M21.4841 6.17124C21.4841 6.54787 21.1755 6.85644 20.7989 6.85644C20.4223 6.85644 20.1137 6.54787 20.1137 6.17124C20.1137 5.79461 20.4177 5.48604 20.7989 5.48604C21.1801 5.48604 21.4841 5.79461 21.4841 6.17124Z" fill="var(--fill-0, white)"/>
<g id="Group_5">
<path id="Vector_37" opacity="0.2" d="M1.37039 9.82878C1.37039 10.2054 1.06183 10.514 0.6852 10.514C0.308569 10.514 0 10.2054 0 9.82878C0 9.45215 0.308569 9.14359 0.6852 9.14359C1.06183 9.14359 1.37039 9.45215 1.37039 9.82878Z" fill="var(--fill-0, #00C2A9)"/>
<path id="Vector_38" opacity="0.3" d="M3.19848 9.82883C3.19848 10.2055 2.88992 10.514 2.51329 10.514C2.13666 10.514 1.8281 10.2055 1.8281 9.82883C1.8281 9.4522 2.13666 9.14364 2.51329 9.14364C2.88992 9.14364 3.19848 9.4522 3.19848 9.82883Z" fill="var(--fill-0, #00C2A9)"/>
<path id="Vector_39" opacity="0.4" d="M5.02661 9.82883C5.02661 10.2055 4.71804 10.514 4.34141 10.514C3.96478 10.514 3.65622 10.2055 3.65622 9.82883C3.65622 9.4522 3.96478 9.14364 4.34141 9.14364C4.71804 9.14364 5.02661 9.4522 5.02661 9.82883Z" fill="var(--fill-0, #00C2A9)"/>
<path id="Vector_40" opacity="0.5" d="M6.85473 9.82883C6.85473 10.2055 6.54617 10.514 6.16954 10.514C5.79291 10.514 5.48435 10.2055 5.48435 9.82883C5.48435 9.4522 5.79291 9.14364 6.16954 9.14364C6.54617 9.14364 6.85473 9.4522 6.85473 9.82883Z" fill="var(--fill-0, #00C2A9)"/>
<path id="Vector_41" opacity="0.6" d="M8.68289 9.82883C8.68289 10.2055 8.37433 10.514 7.99769 10.514C7.62106 10.514 7.3125 10.2055 7.3125 9.82883C7.3125 9.4522 7.62106 9.14364 7.99769 9.14364C8.37433 9.14364 8.68289 9.4522 8.68289 9.82883Z" fill="var(--fill-0, #00C2A9)"/>
<path id="Vector_42" opacity="0.7" d="M10.511 9.82883C10.511 10.2055 10.2025 10.514 9.82582 10.514C9.44919 10.514 9.14063 10.2055 9.14063 9.82883C9.14063 9.4522 9.44919 9.14364 9.82582 9.14364C10.2025 9.14364 10.511 9.4522 10.511 9.82883Z" fill="var(--fill-0, #00C2A9)"/>
<path id="Vector_43" opacity="0.8" d="M12.3417 9.82883C12.3417 10.2055 12.0332 10.514 11.6565 10.514C11.2799 10.514 10.9713 10.2055 10.9713 9.82883C10.9713 9.4522 11.2799 9.14364 11.6565 9.14364C12.0332 9.14364 12.3417 9.4522 12.3417 9.82883Z" fill="var(--fill-0, #00C2A9)"/>
<path id="Vector_44" opacity="0.9" d="M14.1699 9.82883C14.1699 10.2055 13.8613 10.514 13.4847 10.514C13.108 10.514 12.7995 10.2055 12.7995 9.82883C12.7995 9.4522 13.108 9.14364 13.4847 9.14364C13.8613 9.14364 14.1699 9.4522 14.1699 9.82883Z" fill="var(--fill-0, #00C2A9)"/>
<path id="Vector_45" d="M15.998 9.82883C15.998 10.2055 15.6894 10.514 15.3128 10.514C14.9362 10.514 14.6276 10.2055 14.6276 9.82883C14.6276 9.4522 14.9362 9.14364 15.3128 9.14364C15.6894 9.14364 15.998 9.4522 15.998 9.82883Z" fill="var(--fill-0, #00C2A9)"/>
</g>
<path id="Vector_46" d="M17.8278 9.82877C17.8278 10.2054 17.5238 10.514 17.1427 10.514C16.7615 10.514 16.4575 10.2054 16.4575 9.82877C16.4575 9.45214 16.766 9.14358 17.1427 9.14358C17.5193 9.14358 17.8278 9.45214 17.8278 9.82877Z" fill="var(--fill-0, white)"/>
<path id="Vector_47" d="M19.656 9.82877C19.656 10.2054 19.3519 10.514 18.9708 10.514C18.5896 10.514 18.2856 10.2054 18.2856 9.82877C18.2856 9.45214 18.5941 9.14358 18.9708 9.14358C19.3474 9.14358 19.656 9.45214 19.656 9.82877Z" fill="var(--fill-0, white)"/>
<path id="Vector_48" d="M21.4841 9.82877C21.4841 10.2054 21.1755 10.514 20.7989 10.514C20.4223 10.514 20.1137 10.2054 20.1137 9.82877C20.1137 9.45214 20.4177 9.14358 20.7989 9.14358C21.1801 9.14358 21.4841 9.45214 21.4841 9.82877Z" fill="var(--fill-0, white)"/>
<g id="Group_6">
<path id="Vector_49" opacity="0.2" d="M3.19852 11.6573C3.19852 12.0339 2.88996 12.3425 2.51332 12.3425C2.13669 12.3425 1.82813 12.0384 1.82813 11.6573C1.82813 11.2761 2.13669 10.9721 2.51332 10.9721C2.88996 10.9721 3.19852 11.2806 3.19852 11.6573Z" fill="var(--fill-0, #0058D4)"/>
<path id="Vector_50" opacity="0.33" d="M5.02661 11.6573C5.02661 12.0339 4.71804 12.3425 4.34141 12.3425C3.96478 12.3425 3.65622 12.0384 3.65622 11.6573C3.65622 11.2761 3.96478 10.9721 4.34141 10.9721C4.71804 10.9721 5.02661 11.2806 5.02661 11.6573Z" fill="var(--fill-0, #0058D4)"/>
<path id="Vector_51" opacity="0.47" d="M6.85473 11.6573C6.85473 12.0339 6.54617 12.3425 6.16954 12.3425C5.79291 12.3425 5.48435 12.0384 5.48435 11.6573C5.48435 11.2761 5.79291 10.9721 6.16954 10.9721C6.54617 10.9721 6.85473 11.2806 6.85473 11.6573Z" fill="var(--fill-0, #0058D4)"/>
<path id="Vector_52" opacity="0.6" d="M8.68289 11.6573C8.68289 12.0339 8.37433 12.3425 7.99769 12.3425C7.62106 12.3425 7.3125 12.0384 7.3125 11.6573C7.3125 11.2761 7.62106 10.9721 7.99769 10.9721C8.37433 10.9721 8.68289 11.2806 8.68289 11.6573Z" fill="var(--fill-0, #0058D4)"/>
<path id="Vector_53" opacity="0.73" d="M10.5136 11.6573C10.5136 12.0339 10.2096 12.3425 9.82841 12.3425C9.44724 12.3425 9.14322 12.0384 9.14322 11.6573C9.14322 11.2761 9.45178 10.9721 9.82841 10.9721C10.205 10.9721 10.5136 11.2806 10.5136 11.6573Z" fill="var(--fill-0, #0058D4)"/>
<path id="Vector_54" opacity="0.87" d="M12.3417 11.6573C12.3417 12.0339 12.0377 12.3425 11.6565 12.3425C11.2754 12.3425 10.9713 12.0384 10.9713 11.6573C10.9713 11.2761 11.2799 10.9721 11.6565 10.9721C12.0332 10.9721 12.3417 11.2806 12.3417 11.6573Z" fill="var(--fill-0, #0058D4)"/>
<path id="Vector_55" d="M14.1699 11.6573C14.1699 12.0339 13.8658 12.3425 13.4847 12.3425C13.1035 12.3425 12.7995 12.0384 12.7995 11.6573C12.7995 11.2761 13.108 10.9721 13.4847 10.9721C13.8613 10.9721 14.1699 11.2806 14.1699 11.6573Z" fill="var(--fill-0, #0058D4)"/>
</g>
<path id="Vector_56" d="M15.9971 11.6572C15.9971 12.0338 15.6885 12.3424 15.3119 12.3424C14.9353 12.3424 14.6267 12.0384 14.6267 11.6572C14.6267 11.276 14.9353 10.972 15.3119 10.972C15.6885 10.972 15.9971 11.2806 15.9971 11.6572Z" fill="var(--fill-0, white)"/>
<g id="Group_7">
<path id="Vector_57" opacity="0.2" d="M8.68291 8.0003C8.68291 8.38147 8.37889 8.6855 7.99772 8.6855C7.61655 8.6855 7.31253 8.37694 7.31253 8.0003C7.31253 7.62367 7.62109 7.31511 7.99772 7.31511C8.37435 7.31511 8.68291 7.61914 8.68291 8.0003Z" fill="var(--fill-0, #37AA0B)"/>
<path id="Vector_58" opacity="0.36" d="M10.5136 8.00028C10.5136 8.38145 10.2096 8.68548 9.82844 8.68548C9.44728 8.68548 9.14325 8.37691 9.14325 8.00028C9.14325 7.62365 9.45181 7.31508 9.82844 7.31508C10.2051 7.31508 10.5136 7.61911 10.5136 8.00028Z" fill="var(--fill-0, #37AA0B)"/>
<path id="Vector_59" opacity="0.52" d="M12.3418 8.00028C12.3418 8.38145 12.0377 8.68548 11.6566 8.68548C11.2754 8.68548 10.9714 8.37691 10.9714 8.00028C10.9714 7.62365 11.2799 7.31508 11.6566 7.31508C12.0332 7.31508 12.3418 7.61911 12.3418 8.00028Z" fill="var(--fill-0, #37AA0B)"/>
<path id="Vector_60" opacity="0.68" d="M14.1699 8.00028C14.1699 8.38145 13.8659 8.68548 13.4847 8.68548C13.1035 8.68548 12.7995 8.37691 12.7995 8.00028C12.7995 7.62365 13.1081 7.31508 13.4847 7.31508C13.8613 7.31508 14.1699 7.61911 14.1699 8.00028Z" fill="var(--fill-0, #37AA0B)"/>
<path id="Vector_61" opacity="0.84" d="M16.0006 8.00028C16.0006 8.38145 15.6966 8.68548 15.3154 8.68548C14.9343 8.68548 14.6303 8.37691 14.6303 8.00028C14.6303 7.62365 14.9388 7.31508 15.3154 7.31508C15.6921 7.31508 16.0006 7.61911 16.0006 8.00028Z" fill="var(--fill-0, #37AA0B)"/>
<path id="Vector_62" d="M17.8288 8.00028C17.8288 8.38145 17.5247 8.68548 17.1436 8.68548C16.7624 8.68548 16.4584 8.37691 16.4584 8.00028C16.4584 7.62365 16.7669 7.31508 17.1436 7.31508C17.5202 7.31508 17.8288 7.61911 17.8288 8.00028Z" fill="var(--fill-0, #37AA0B)"/>
</g>
<path id="Vector_63" d="M19.656 8.00034C19.656 8.38151 19.3519 8.68554 18.9708 8.68554C18.5896 8.68554 18.2856 8.37697 18.2856 8.00034C18.2856 7.62371 18.5941 7.31515 18.9708 7.31515C19.3474 7.31515 19.656 7.61917 19.656 8.00034Z" fill="var(--fill-0, white)"/>
<path id="Vector_64" d="M21.4841 8.00034C21.4841 8.38151 21.1755 8.68554 20.7989 8.68554C20.4223 8.68554 20.1137 8.37697 20.1137 8.00034C20.1137 7.62371 20.4177 7.31515 20.7989 7.31515C21.1801 7.31515 21.4841 7.61917 21.4841 8.00034Z" fill="var(--fill-0, white)"/>
<path id="Vector_65" d="M23.3122 8.00034C23.3122 8.38151 23.0037 8.68554 22.627 8.68554C22.2504 8.68554 21.9418 8.37697 21.9418 8.00034C21.9418 7.62371 22.2504 7.31515 22.627 7.31515C23.0037 7.31515 23.3122 7.61917 23.3122 8.00034Z" fill="var(--fill-0, white)"/>
<path id="Vector_66" d="M17.8278 11.6572C17.8278 12.0338 17.5238 12.3424 17.1427 12.3424C16.7615 12.3424 16.4575 12.0384 16.4575 11.6572C16.4575 11.276 16.766 10.972 17.1427 10.972C17.5193 10.972 17.8278 11.2806 17.8278 11.6572Z" fill="var(--fill-0, white)"/>
<path id="Vector_67" d="M19.656 11.6572C19.656 12.0338 19.3519 12.3424 18.9708 12.3424C18.5896 12.3424 18.2856 12.0384 18.2856 11.6572C18.2856 11.276 18.5941 10.972 18.9708 10.972C19.3474 10.972 19.656 11.2806 19.656 11.6572Z" fill="var(--fill-0, white)"/>
<g id="Group_8">
<path id="Vector_68" opacity="0.2" d="M6.85478 13.4864C6.85478 13.8631 6.55076 14.1716 6.16959 14.1716C5.78842 14.1716 5.48439 13.8631 5.48439 13.4864C5.48439 13.1098 5.79296 12.8012 6.16959 12.8012C6.54622 12.8012 6.85478 13.1098 6.85478 13.4864Z" fill="var(--fill-0, #1900D4)"/>
<path id="Vector_69" opacity="0.47" d="M8.68289 13.4865C8.68289 13.8632 8.37433 14.1717 7.99769 14.1717C7.62106 14.1717 7.3125 13.8632 7.3125 13.4865C7.3125 13.1099 7.62106 12.8014 7.99769 12.8014C8.37433 12.8014 8.68289 13.1099 8.68289 13.4865Z" fill="var(--fill-0, #1900D4)"/>
<path id="Vector_70" opacity="0.73" d="M10.511 13.4865C10.511 13.8632 10.2025 14.1717 9.82582 14.1717C9.44919 14.1717 9.14063 13.8632 9.14063 13.4865C9.14063 13.1099 9.44919 12.8014 9.82582 12.8014C10.2025 12.8014 10.511 13.1099 10.511 13.4865Z" fill="var(--fill-0, #1900D4)"/>
<path id="Vector_71" d="M12.3417 13.4865C12.3417 13.8632 12.0332 14.1717 11.6565 14.1717C11.2799 14.1717 10.9713 13.8632 10.9713 13.4865C10.9713 13.1099 11.2799 12.8014 11.6565 12.8014C12.0332 12.8014 12.3417 13.1099 12.3417 13.4865Z" fill="var(--fill-0, #1900D4)"/>
</g>
<path id="Vector_72" d="M14.169 13.4864C14.169 13.863 13.8649 14.1716 13.4838 14.1716C13.1026 14.1716 12.7986 13.863 12.7986 13.4864C12.7986 13.1097 13.1071 12.8012 13.4838 12.8012C13.8604 12.8012 14.169 13.1097 14.169 13.4864Z" fill="var(--fill-0, white)"/>
<path id="Vector_73" d="M15.9971 13.4864C15.9971 13.863 15.6885 14.1716 15.3119 14.1716C14.9353 14.1716 14.6267 13.863 14.6267 13.4864C14.6267 13.1097 14.9353 12.8012 15.3119 12.8012C15.6885 12.8012 15.9971 13.1097 15.9971 13.4864Z" fill="var(--fill-0, white)"/>
<path id="Vector_74" d="M17.8278 13.4864C17.8278 13.863 17.5238 14.1716 17.1427 14.1716C16.7615 14.1716 16.4575 13.863 16.4575 13.4864C16.4575 13.1097 16.766 12.8012 17.1427 12.8012C17.5193 12.8012 17.8278 13.1097 17.8278 13.4864Z" fill="var(--fill-0, white)"/>
<g id="Group_9">
<path id="Vector_75" opacity="0.2" d="M5.02665 15.3148C5.02665 15.6914 4.71809 16 4.34146 16C3.96483 16 3.65626 15.6914 3.65626 15.3148C3.65626 14.9382 3.96483 14.6296 4.34146 14.6296C4.71809 14.6296 5.02665 14.9382 5.02665 15.3148Z" fill="var(--fill-0, #9B1398)"/>
<path id="Vector_76" opacity="0.47" d="M6.85473 15.3147C6.85473 15.6914 6.54617 15.9999 6.16954 15.9999C5.79291 15.9999 5.48435 15.6914 5.48435 15.3147C5.48435 14.9381 5.79291 14.6295 6.16954 14.6295C6.54617 14.6295 6.85473 14.9381 6.85473 15.3147Z" fill="var(--fill-0, #9B1398)"/>
<path id="Vector_77" opacity="0.73" d="M8.68289 15.3147C8.68289 15.6914 8.37433 15.9999 7.99769 15.9999C7.62106 15.9999 7.3125 15.6914 7.3125 15.3147C7.3125 14.9381 7.61653 14.6295 7.99769 14.6295C8.37886 14.6295 8.68289 14.9381 8.68289 15.3147Z" fill="var(--fill-0, #9B1398)"/>
<path id="Vector_78" d="M10.511 15.3147C10.511 15.6914 10.2025 15.9999 9.82582 15.9999C9.44919 15.9999 9.14063 15.6914 9.14063 15.3147C9.14063 14.9381 9.44465 14.6295 9.82582 14.6295C10.207 14.6295 10.511 14.9381 10.511 15.3147Z" fill="var(--fill-0, #9B1398)"/>
</g>
<path id="Vector_79" d="M12.3408 15.3148C12.3408 15.6914 12.0323 16 11.6556 16C11.279 16 10.9705 15.6914 10.9705 15.3148C10.9705 14.9382 11.279 14.6296 11.6556 14.6296C12.0323 14.6296 12.3408 14.9382 12.3408 15.3148Z" fill="var(--fill-0, white)"/>
<path id="Vector_80" d="M14.169 15.3148C14.169 15.6914 13.8649 16 13.4838 16C13.1026 16 12.7986 15.6914 12.7986 15.3148C12.7986 14.9382 13.1071 14.6296 13.4838 14.6296C13.8604 14.6296 14.169 14.9382 14.169 15.3148Z" fill="var(--fill-0, white)"/>
<path id="Vector_81" d="M15.9971 15.3148C15.9971 15.6914 15.6885 16 15.3119 16C14.9353 16 14.6267 15.6914 14.6267 15.3148C14.6267 14.9382 14.9353 14.6296 15.3119 14.6296C15.6885 14.6296 15.9971 14.9382 15.9971 15.3148Z" fill="var(--fill-0, white)"/>
</g>
</svg>
