<svg preserveAspectRatio="none" width="100%" height="100%" overflow="visible" style="display: block;" viewBox="0 0 74.998 16" fill="none" xmlns="http://www.w3.org/2000/svg">
<g id="Logo" clip-path="url(#clip0_0_9)">
<g id="Vector">
<path d="M61.4797 9.47158C61.4797 10.6364 60.459 11.3842 58.866 11.3842C57.1642 11.3842 56.1258 10.6098 56.0526 9.28077H57.5192C57.6368 9.86431 58.0739 10.1461 58.8571 10.1461C59.576 10.1461 60.0131 9.83768 60.0131 9.30961C60.0131 8.78155 59.6492 8.57298 58.8016 8.57298H57.9829V7.35266H58.7927C59.576 7.35266 59.9043 7.16184 59.9043 6.70699C59.9043 6.25214 59.485 5.96148 58.8216 5.96148C58.1582 5.96148 57.7299 6.21664 57.639 6.69812H56.1724C56.2811 5.43342 57.2463 4.72341 58.8393 4.72341C60.4324 4.72341 61.371 5.43342 61.371 6.5539C61.371 7.32825 60.9893 7.80085 60.2704 7.90957C61.0448 8.02716 61.4819 8.58408 61.4819 9.47602L61.4797 9.47158Z" fill="var(--fill-0, #727272)"/>
<path d="M67.7451 9.12551C67.7451 10.4812 66.6889 11.3842 65.0959 11.3842C63.2654 11.3842 62.2825 10.3458 62.2825 8.38C62.2825 5.96819 63.2831 4.72124 65.1691 4.72124C66.5359 4.72124 67.4455 5.42237 67.6097 6.59611H66.152C66.0144 6.17676 65.6705 5.95932 65.1225 5.95932C64.2572 5.95932 63.8112 6.52289 63.7579 7.75209C64.1041 7.39708 64.7231 7.16855 65.3777 7.16855C66.862 7.16855 67.7451 7.89631 67.7451 9.12551ZM66.2785 9.15213C66.2785 8.58856 65.868 8.26906 65.1047 8.26906C64.4214 8.26906 63.7491 8.60631 63.7491 8.99682C63.7491 9.70683 64.2594 10.1439 65.0604 10.1439C65.797 10.1439 66.2807 9.75342 66.2807 9.15213H66.2785Z" fill="var(--fill-0, #727272)"/>
<path d="M68.5288 8.05167C68.5288 5.77521 69.494 4.71908 71.5508 4.71908C73.6076 4.71908 74.5728 5.77521 74.5728 8.05167C74.5728 10.3281 73.6076 11.3843 71.5508 11.3843C69.494 11.3843 68.5288 10.3281 68.5288 8.05167ZM73.1084 8.05167C73.1084 6.59394 72.6447 6.03925 71.5508 6.03925C70.4569 6.03925 69.9932 6.59394 69.9932 8.05167C69.9932 9.50941 70.4481 10.0641 71.5508 10.0641C72.6535 10.0641 73.1084 9.50941 73.1084 8.05167Z" fill="var(--fill-0, #727272)"/>
</g>
<g id="Vector_2">
<path d="M21.0734 8.95242L20.481 4.86544H21.9388L22.5667 9.15433C22.6665 9.81996 22.8307 10.064 23.1591 10.064C23.4875 10.064 23.6605 9.81774 23.7604 9.15433L24.3794 4.86544H25.846L26.4739 9.15433C26.5738 9.81996 26.738 10.064 27.0664 10.064C27.3947 10.064 27.5678 9.81774 27.6676 9.15433L28.2867 4.86544H29.7533L29.152 8.95242C28.8791 10.7452 28.3599 11.3842 27.1573 11.3842C25.9547 11.3842 25.4267 10.7008 25.3002 9.07223L25.136 7.15965H25.1005L24.9275 9.07223C24.801 10.7008 24.2441 11.3842 23.0703 11.3842C21.8966 11.3842 21.3508 10.7474 21.0757 8.95242H21.0734Z" fill="var(--fill-0, #DADADA)"/>
<path d="M36.2788 11.2377H34.8211L34.5837 9.60914H31.97L31.7326 11.2377H30.2748L30.8584 7.20399C31.1402 5.38238 31.7769 4.71897 33.2702 4.71897C34.7634 4.71897 35.4091 5.3846 35.682 7.20399L36.2744 11.2377H36.2788ZM34.384 8.27788L34.2464 7.32159C34.1 6.35642 33.8648 6.03692 33.2724 6.03692C32.68 6.03692 32.4537 6.35642 32.3072 7.32159L32.1697 8.27788H34.384Z" fill="var(--fill-0, #DADADA)"/>
<path d="M39.8752 11.2378H38.4086V6.18561H36.4605V4.86544H41.8233V6.18561H39.8752V11.2378Z" fill="var(--fill-0, #DADADA)"/>
<path d="M42.4426 8.05156C42.4426 5.7751 43.4077 4.71897 45.4645 4.71897C47.2861 4.71897 48.2313 5.51994 48.4421 7.27721H46.9666C46.8113 6.42076 46.3654 6.03914 45.4645 6.03914C44.3729 6.03914 43.907 6.6027 43.907 8.05156C43.907 9.50042 44.3707 10.064 45.4645 10.064C46.3654 10.064 46.8113 9.68236 46.9666 8.82592H48.4421C48.2336 10.5832 47.2861 11.3842 45.4645 11.3842C43.4077 11.3842 42.4426 10.328 42.4426 8.05156Z" fill="var(--fill-0, #DADADA)"/>
<path d="M53.5961 7.29505V4.86327H55.0627V11.2356H53.5961V8.62188H51.0023V11.2356H49.5357V4.86327H51.0023V7.29505H53.5961Z" fill="var(--fill-0, #DADADA)"/>
<path d="M8.01248 15.9974C7.60422 15.9974 7.19375 15.9663 6.78106 15.9042C4.671 15.5803 2.81389 14.4576 1.54919 12.738C0.286707 11.0185 -0.228049 8.91287 0.0936732 6.80503C0.763743 2.45623 4.85072 -0.54133 9.2084 0.130958C10.2313 0.288491 11.1986 0.63462 12.0861 1.16047C12.4123 1.3535 12.5188 1.77507 12.3236 2.10123C12.1283 2.42739 11.7067 2.53167 11.3806 2.33864C10.6462 1.90154 9.84518 1.61532 8.99761 1.48441C5.39211 0.934154 2.00626 3.41252 1.45378 7.0136C1.18531 8.75977 1.61575 10.5015 2.66079 11.926C3.70584 13.3482 5.24567 14.2801 6.99406 14.5486C10.604 15.1032 13.9876 12.6204 14.5423 9.02159C14.671 8.17845 14.6377 7.32644 14.4403 6.49662C14.3515 6.1283 14.5823 5.75777 14.9506 5.67124C15.3211 5.5847 15.6894 5.81324 15.776 6.18156C16.0134 7.18444 16.0555 8.20951 15.898 9.23015C15.5741 11.3358 14.4469 13.1907 12.7274 14.4531C11.3429 15.4671 9.70318 15.9996 8.0147 15.9996L8.01248 15.9974ZM8.48286 10.1154L17.44 1.17156C17.7085 0.903092 17.7085 0.470431 17.44 0.201959C17.1716 -0.0665126 16.7367 -0.0665126 16.4682 0.201959L7.99473 8.65993L5.24788 5.91752C4.97941 5.64905 4.54453 5.64905 4.27606 5.91752C4.00759 6.18599 4.00759 6.61865 4.27606 6.88713L7.50882 10.1132C7.64194 10.2463 7.81944 10.3151 7.99251 10.3151C8.16557 10.3151 8.34307 10.2486 8.4762 10.1132H8.48064L8.48286 10.1154Z" fill="var(--fill-0, #DADADA)"/>
</g>
</g>
<defs>
<clipPath id="clip0_0_9">
<rect width="74.998" height="16" fill="white"/>
</clipPath>
</defs>
</svg>
