<svg width="120" height="24" viewBox="0 0 120 24" fill="none" xmlns="http://www.w3.org/2000/svg">
<g clip-path="url(#clip0_160_3230)">
<path d="M5.54289 7.97318C5.6014 7.98382 5.61736 8.06361 5.6014 8.13276L5.41522 9.61158C5.40458 9.67009 5.33011 9.69137 5.29287 9.68073C4.69177 9.51051 3.8247 9.40944 3.15977 9.40944C1.94161 9.40944 1.81394 9.55838 1.81394 10.2074C1.81394 10.7978 1.92565 10.8776 3.4151 11.0372C5.21308 11.2287 5.92057 11.9362 5.92057 13.4097C5.92057 15.3619 4.87264 16.0215 2.54271 16.0215C1.84054 16.0215 0.925588 15.9418 0.239376 15.7928C0.180862 15.7822 0.164904 15.713 0.180862 15.6332L0.367044 14.165C0.377683 14.1065 0.452155 14.0746 0.489391 14.0853C1.09049 14.2555 2.05332 14.3566 2.72357 14.3566C3.94173 14.3566 4.10663 14.1757 4.11727 13.5161C4.11727 12.9363 3.99492 12.7873 2.41504 12.6277C0.739407 12.4575 0 11.8298 0 10.3563C0 8.40406 1.0107 7.74444 3.34063 7.74444C4.0428 7.74444 4.85668 7.83487 5.53757 7.97318H5.54289ZM11.9369 14.4257C11.9741 14.4151 12.038 14.4363 12.0486 14.4949L12.1816 15.713C12.2029 15.7822 12.1816 15.8354 12.1231 15.862C11.5167 15.963 10.607 16.0215 9.97933 16.0215C7.88346 16.0215 7.15469 15.2928 7.15469 12.9522C7.15469 10.6116 7.90474 9.88287 9.90486 9.88287C11.905 9.88287 12.4688 10.5744 12.4688 13.282C12.4688 13.3724 12.3731 13.431 12.3093 13.431H8.79841C8.83564 14.5321 8.98459 14.6225 10.1655 14.6225C10.7826 14.6225 11.4103 14.564 11.9369 14.431V14.4257ZM10.9049 12.1862C10.8836 11.3351 10.7453 11.2074 9.85698 11.2074C8.96863 11.2074 8.84628 11.3351 8.80905 12.1862H10.9049ZM13.7987 10.1382C13.7987 10.0797 13.8359 10.0371 13.8945 10.0371H15.2243C15.2828 10.0371 15.3254 10.085 15.3254 10.1382V10.7074C15.6073 10.3563 16.3148 9.87755 17.0755 9.87755C17.8787 9.87755 18.3469 10.1595 18.6288 10.8989C19.0384 10.3403 19.815 9.87755 20.5864 9.87755C21.8311 9.87755 22.395 10.5478 22.395 12.6277V15.7503C22.395 15.8088 22.3471 15.8513 22.2939 15.8513H20.8896C20.8311 15.8513 20.7885 15.8034 20.7885 15.7503V12.7394C20.7885 11.5798 20.6661 11.4202 19.9533 11.4202C19.6182 11.4202 19.1501 11.5 18.7937 11.6915C18.8416 11.9734 18.8575 12.3139 18.8575 12.7022V15.7503C18.8575 15.8088 18.8097 15.8513 18.7565 15.8513H17.4372C17.3787 15.8513 17.3362 15.8034 17.3362 15.7503V12.7394C17.3362 11.5798 17.2138 11.4202 16.5116 11.4202C16.1659 11.4202 15.6765 11.4894 15.3307 11.6702V15.7503C15.3307 15.8088 15.2828 15.8513 15.2296 15.8513H13.8998C13.8413 15.8513 13.804 15.8034 13.804 15.7503V10.1382H13.7987ZM29.2305 12.25V14.6704L29.5975 15.3885C29.6241 15.447 29.6188 15.5002 29.5709 15.5375L28.3475 16.1279C28.3102 16.1492 28.2358 16.1386 28.2092 16.096L27.741 15.1757C27.4804 15.5162 26.6718 16.0162 25.9697 16.0162C24.4908 16.0162 23.8525 15.5162 23.8525 13.9576C23.8525 12.399 24.4908 11.9681 25.959 11.9681C26.6718 11.9681 27.4485 12.3777 27.7091 12.7182V12.3086C27.7091 11.4096 27.4272 11.2287 26.2888 11.2287C25.725 11.2287 25.0334 11.2979 24.5387 11.4308C24.5121 11.4415 24.443 11.4202 24.427 11.3617L24.2887 10.1701C24.2621 10.101 24.2887 10.0318 24.3472 10.0212C25.0228 9.92011 25.592 9.87223 26.4644 9.87223C28.1187 9.87223 29.2465 10.3723 29.2465 12.2447L29.2305 12.25ZM25.4856 13.9097C25.4856 14.4789 25.6452 14.5693 26.4591 14.5693C26.8527 14.5693 27.3474 14.4895 27.7038 14.3087V13.4788C27.3474 13.298 26.8527 13.2182 26.4591 13.2182C25.6345 13.2182 25.4856 13.3193 25.4856 13.9097ZM32.3424 10.7074C32.7148 10.3084 33.4648 9.87755 34.3266 9.87755C35.7096 9.87755 36.1884 10.617 36.1884 12.649V15.7503C36.1884 15.8088 36.1405 15.8513 36.0873 15.8513H34.7681C34.7096 15.8513 34.667 15.8034 34.667 15.7503V12.7713C34.667 11.5691 34.534 11.4202 33.6084 11.4202C33.2254 11.4202 32.736 11.4787 32.3477 11.6596V15.7503C32.3477 15.8088 32.2998 15.8513 32.2466 15.8513H30.9168C30.8583 15.8513 30.821 15.8034 30.821 15.7503V10.1488C30.821 10.0903 30.8583 10.0478 30.9168 10.0478H32.2466C32.3052 10.0478 32.3477 10.0956 32.3477 10.1488V10.7074H32.3424ZM39.7099 10.0371H41.5238C41.5823 10.0371 41.6249 10.085 41.6249 10.1382V11.4468C41.6249 11.5053 41.577 11.5479 41.5238 11.5479H39.7099V13.6863C39.7099 14.3246 39.7843 14.447 40.4599 14.447C40.7791 14.447 41.1514 14.3885 41.4334 14.3087H41.46C41.5451 14.3087 41.561 14.4204 41.5717 14.5108L41.7313 15.713C41.7419 15.7928 41.7313 15.8726 41.6089 15.8939C41.2365 15.963 40.6089 16.0056 40.1301 16.0056C38.896 16.0056 38.1832 15.5534 38.1832 13.8246V11.5425H37.3055C37.2469 11.5425 37.2044 11.4947 37.2044 11.4415V10.1329C37.2044 10.0744 37.2523 10.0318 37.3055 10.0318H38.1778V9.05303C38.1778 8.91473 38.2044 8.86153 38.2736 8.83493L39.6035 8.44661C39.662 8.44661 39.7152 8.47853 39.7152 8.53704V10.0265L39.7099 10.0371ZM44.8166 8.34554C44.8166 9.12751 44.7208 9.21794 44.0186 9.21794C43.3165 9.21794 43.2313 9.12751 43.2313 8.34554C43.2313 7.65401 43.3165 7.57422 44.0186 7.57422C44.7208 7.57422 44.8166 7.65401 44.8166 8.34554ZM44.7793 15.7556C44.7793 15.8141 44.7314 15.8566 44.6782 15.8566H43.3484C43.2899 15.8566 43.2526 15.8088 43.2526 15.7556V10.1435C43.2526 10.085 43.2899 10.0425 43.3484 10.0425H44.6782C44.7368 10.0425 44.7793 10.0903 44.7793 10.1435V15.7556ZM49.104 14.4842C49.6307 14.4842 50.2105 14.4151 50.6414 14.2927C50.6786 14.2821 50.7424 14.3034 50.7531 14.3619L50.902 15.7237C50.9233 15.7928 50.902 15.846 50.8435 15.8726C50.2371 15.9737 49.6254 16.0215 48.9977 16.0215C46.9869 16.0215 46.3964 15.2928 46.3964 12.9522C46.3964 10.6116 46.9975 9.88287 48.9977 9.88287C49.6254 9.88287 50.2318 9.93075 50.8435 10.0318C50.902 10.0425 50.918 10.1116 50.902 10.1808L50.7531 11.5425C50.7424 11.6011 50.6786 11.6223 50.6414 11.6117C50.2105 11.484 49.6094 11.4096 49.0774 11.4096C48.1891 11.4096 48.0667 11.5585 48.0667 12.9575C48.0667 14.3565 48.2157 14.4895 49.104 14.4895V14.4842Z" fill="white"/>
<path d="M53.97 11.2818H56.7096C56.7681 11.2818 56.8053 11.3297 56.8053 11.3829V12.7021C56.8053 12.7606 56.7681 12.8032 56.7096 12.8032H53.97V15.6332C53.97 15.6917 53.9221 15.7342 53.869 15.7342H52.454C52.3955 15.7342 52.3529 15.6864 52.3529 15.6332V7.91992C52.3529 7.8614 52.4008 7.81885 52.454 7.81885H57.4702C57.5288 7.81885 57.566 7.86672 57.566 7.91992V9.26043C57.566 9.31894 57.5288 9.3615 57.4702 9.3615H53.97V11.2818ZM58.0128 12.7926C58.0128 10.4201 58.8001 9.76046 60.896 9.76046C62.9918 9.76046 63.7898 10.4201 63.7898 12.7926C63.7898 15.165 63.0238 15.8938 60.896 15.8938C58.7682 15.8938 58.0128 15.1757 58.0128 12.7926ZM59.6672 12.8245C59.6672 14.2767 59.7683 14.4256 60.8907 14.4256C62.0131 14.4256 62.1141 14.2767 62.1141 12.8245C62.1141 11.3723 62.0184 11.2233 60.8907 11.2233C59.7629 11.2233 59.6672 11.3616 59.6672 12.8245ZM69.2422 9.85621C69.3007 9.86685 69.3167 9.936 69.3007 9.99451L69.1252 11.4042C69.1146 11.4627 69.0507 11.4946 69.0135 11.484C68.6784 11.3829 68.3752 11.335 67.9762 11.335C67.5772 11.335 67.1464 11.4148 66.7527 11.5638V15.6332C66.7527 15.6917 66.7048 15.7342 66.6516 15.7342H65.3324C65.2739 15.7342 65.2313 15.6864 65.2313 15.6332V11.1222L64.859 10.3828C64.8324 10.3243 64.8377 10.2711 64.8856 10.2339L66.0452 9.64343C66.0931 9.61151 66.1569 9.63279 66.1835 9.67534L66.6623 10.585C67.1517 10.0743 67.6836 9.75514 68.4496 9.75514C68.7369 9.75514 69.0029 9.78705 69.2529 9.85621H69.2422ZM72.5084 14.3565C73.0297 14.3565 73.6095 14.2873 74.0404 14.165C74.0776 14.1543 74.1415 14.1756 74.1521 14.2341L74.301 15.5959C74.3223 15.6651 74.301 15.7183 74.2425 15.7449C73.6361 15.8459 73.0244 15.8938 72.3967 15.8938C70.3859 15.8938 69.7955 15.165 69.7955 12.8245C69.7955 10.4839 70.3966 9.75514 72.3967 9.75514C73.0244 9.75514 73.6308 9.80301 74.2425 9.90408C74.301 9.91472 74.317 9.98387 74.301 10.053L74.1521 11.4148C74.1415 11.4733 74.0776 11.4946 74.0404 11.484C73.6095 11.3563 73.0084 11.2818 72.4765 11.2818C71.5881 11.2818 71.4658 11.4308 71.4658 12.8298C71.4658 14.2288 71.6147 14.3618 72.5031 14.3618L72.5084 14.3565ZM80.0195 14.298C80.0567 14.2873 80.1205 14.3086 80.1312 14.3671L80.2642 15.5853C80.2854 15.6544 80.2642 15.7076 80.2057 15.7342C79.5992 15.8353 78.6896 15.8938 78.0619 15.8938C75.966 15.8938 75.2373 15.165 75.2373 12.8245C75.2373 10.4839 75.9873 9.75514 77.9874 9.75514C79.9876 9.75514 80.5514 10.4467 80.5514 13.1543C80.5514 13.2447 80.4557 13.3032 80.3918 13.3032H76.881C76.9182 14.4044 77.0672 14.4948 78.2481 14.4948C78.8652 14.4948 79.4928 14.4363 80.0142 14.3033L80.0195 14.298ZM78.9875 12.0585C78.9662 11.2074 78.8279 11.0797 77.9396 11.0797C77.0512 11.0797 76.9289 11.2074 76.8916 12.0585H78.9875Z" fill="#7E90A3"/>
<path opacity="0.2" d="M92.4648 1.02779C92.4648 1.59955 92.0019 2.05559 91.437 2.05559C90.872 2.05559 90.4092 1.59274 90.4092 1.02779C90.4092 0.462847 90.872 0 91.437 0C92.0019 0 92.4648 0.462847 92.4648 1.02779Z" fill="#B2030A"/>
<path opacity="0.47" d="M95.2078 1.02779C95.2078 1.59274 94.745 2.05559 94.18 2.05559C93.6151 2.05559 93.1522 1.59274 93.1522 1.02779C93.1522 0.462847 93.6151 0 94.18 0C94.745 0 95.2078 0.462847 95.2078 1.02779Z" fill="#B2030A"/>
<path opacity="0.73" d="M97.9508 1.02779C97.9508 1.59274 97.488 2.05559 96.9231 2.05559C96.3581 2.05559 95.8953 1.59274 95.8953 1.02779C95.8953 0.462847 96.3513 0 96.9231 0C97.4948 0 97.9508 0.462847 97.9508 1.02779Z" fill="#B2030A"/>
<path d="M100.694 1.02779C100.694 1.59955 100.231 2.05559 99.6661 2.05559C99.1011 2.05559 98.6383 1.59274 98.6383 1.02779C98.6383 0.462847 99.0943 0 99.6661 0C100.238 0 100.694 0.462847 100.694 1.02779Z" fill="#B2030A"/>
<path opacity="0.2" d="M89.7217 3.77096C89.7217 4.34271 89.2589 4.79875 88.6939 4.79875C88.129 4.79875 87.6661 4.3359 87.6661 3.77096C87.6661 3.20601 88.129 2.74316 88.6939 2.74316C89.2589 2.74316 89.7217 3.20601 89.7217 3.77096Z" fill="#F23508"/>
<path opacity="0.36" d="M92.4648 3.77096C92.4648 4.34271 92.0019 4.79875 91.437 4.79875C90.872 4.79875 90.4092 4.3359 90.4092 3.77096C90.4092 3.20601 90.872 2.74316 91.437 2.74316C92.0019 2.74316 92.4648 3.20601 92.4648 3.77096Z" fill="#F23508"/>
<path opacity="0.52" d="M95.2079 3.77096C95.2079 4.34271 94.745 4.79875 94.1801 4.79875C93.6151 4.79875 93.1523 4.3359 93.1523 3.77096C93.1523 3.20601 93.6151 2.74316 94.1801 2.74316C94.745 2.74316 95.2079 3.20601 95.2079 3.77096Z" fill="#F23508"/>
<path opacity="0.68" d="M97.9509 3.77096C97.9509 4.34271 97.4881 4.79875 96.9231 4.79875C96.3582 4.79875 95.8953 4.3359 95.8953 3.77096C95.8953 3.20601 96.3582 2.74316 96.9231 2.74316C97.4881 2.74316 97.9509 3.20601 97.9509 3.77096Z" fill="#F23508"/>
<path opacity="0.84" d="M100.694 3.77096C100.694 4.34271 100.231 4.79875 99.6661 4.79875C99.1011 4.79875 98.6383 4.3359 98.6383 3.77096C98.6383 3.20601 99.1011 2.74316 99.6661 2.74316C100.231 2.74316 100.694 3.20601 100.694 3.77096Z" fill="#F23508"/>
<path d="M103.437 3.77096C103.437 4.34271 102.974 4.79875 102.409 4.79875C101.844 4.79875 101.381 4.3359 101.381 3.77096C101.381 3.20601 101.844 2.74316 102.409 2.74316C102.974 2.74316 103.437 3.20601 103.437 3.77096Z" fill="#F23508"/>
<path opacity="0.2" d="M92.4648 6.51388C92.4648 7.08563 92.0019 7.54848 91.437 7.54848C90.872 7.54848 90.4092 7.08563 90.4092 6.51388C90.4092 5.94212 90.872 5.48608 91.437 5.48608C92.0019 5.48608 92.4648 5.94212 92.4648 6.51388Z" fill="#EBC504"/>
<path opacity="0.36" d="M95.2078 6.51388C95.2078 7.08563 94.745 7.54848 94.18 7.54848C93.6151 7.54848 93.1522 7.08563 93.1522 6.51388C93.1522 5.94212 93.6151 5.48608 94.18 5.48608C94.745 5.48608 95.2078 5.94212 95.2078 6.51388Z" fill="#EBC504"/>
<path opacity="0.52" d="M97.9508 6.51388C97.9508 7.08563 97.488 7.54848 96.9231 7.54848C96.3581 7.54848 95.8953 7.08563 95.8953 6.51388C95.8953 5.94212 96.3581 5.48608 96.9231 5.48608C97.488 5.48608 97.9508 5.94212 97.9508 6.51388Z" fill="#EBC504"/>
<path opacity="0.68" d="M100.694 6.51388C100.694 7.08563 100.231 7.54848 99.6661 7.54848C99.1011 7.54848 98.6383 7.08563 98.6383 6.51388C98.6383 5.94212 99.1011 5.48608 99.6661 5.48608C100.231 5.48608 100.694 5.94212 100.694 6.51388Z" fill="#EBC504"/>
<path opacity="0.84" d="M103.437 6.51388C103.437 7.08563 102.981 7.54848 102.409 7.54848C101.837 7.54848 101.381 7.08563 101.381 6.51388C101.381 5.94212 101.844 5.48608 102.409 5.48608C102.974 5.48608 103.437 5.94212 103.437 6.51388Z" fill="#EBC504"/>
<path d="M106.18 6.51388C106.18 7.08563 105.724 7.54848 105.152 7.54848C104.58 7.54848 104.124 7.08563 104.124 6.51388C104.124 5.94212 104.587 5.48608 105.152 5.48608C105.717 5.48608 106.18 5.94212 106.18 6.51388Z" fill="#EBC504"/>
<path opacity="0.2" d="M89.7217 9.2568C89.7217 9.82174 89.2589 10.2846 88.6939 10.2846C88.129 10.2846 87.6661 9.82174 87.6661 9.2568C87.6661 8.69185 88.129 8.229 88.6939 8.229C89.2589 8.229 89.7217 8.69185 89.7217 9.2568Z" fill="#BCFF04"/>
<path opacity="0.31" d="M92.4648 9.2568C92.4648 9.82174 92.0019 10.2846 91.437 10.2846C90.872 10.2846 90.4092 9.82174 90.4092 9.2568C90.4092 8.69185 90.872 8.229 91.437 8.229C92.0019 8.229 92.4648 8.69185 92.4648 9.2568Z" fill="#BCFF04"/>
<path opacity="0.43" d="M95.2079 9.2568C95.2079 9.82174 94.745 10.2846 94.1801 10.2846C93.6151 10.2846 93.1523 9.82174 93.1523 9.2568C93.1523 8.69185 93.6151 8.229 94.1801 8.229C94.745 8.229 95.2079 8.69185 95.2079 9.2568Z" fill="#BCFF04"/>
<path opacity="0.54" d="M97.9509 9.2568C97.9509 9.82174 97.4881 10.2846 96.9231 10.2846C96.3582 10.2846 95.8953 9.82174 95.8953 9.2568C95.8953 8.69185 96.3582 8.229 96.9231 8.229C97.4881 8.229 97.9509 8.69185 97.9509 9.2568Z" fill="#BCFF04"/>
<path opacity="0.66" d="M100.694 9.2568C100.694 9.82174 100.231 10.2846 99.6661 10.2846C99.1011 10.2846 98.6383 9.82174 98.6383 9.2568C98.6383 8.69185 99.1011 8.229 99.6661 8.229C100.231 8.229 100.694 8.69185 100.694 9.2568Z" fill="#BCFF04"/>
<path opacity="0.77" d="M103.437 9.2568C103.437 9.82174 102.974 10.2846 102.409 10.2846C101.844 10.2846 101.381 9.82174 101.381 9.2568C101.381 8.69185 101.844 8.229 102.409 8.229C102.974 8.229 103.437 8.69185 103.437 9.2568Z" fill="#BCFF04"/>
<path opacity="0.89" d="M106.18 9.2568C106.18 9.82174 105.717 10.2846 105.152 10.2846C104.587 10.2846 104.124 9.82174 104.124 9.2568C104.124 8.69185 104.587 8.229 105.152 8.229C105.717 8.229 106.18 8.69185 106.18 9.2568Z" fill="#BCFF04"/>
<path d="M108.923 9.2568C108.923 9.82174 108.46 10.2846 107.895 10.2846C107.33 10.2846 106.867 9.82174 106.867 9.2568C106.867 8.69185 107.33 8.229 107.895 8.229C108.46 8.229 108.923 8.69185 108.923 9.2568Z" fill="#BCFF04"/>
<path opacity="0.2" d="M86.9786 14.7431C86.9786 15.3081 86.5158 15.7709 85.9508 15.7709C85.3859 15.7709 84.923 15.3081 84.923 14.7431C84.923 14.1782 85.3859 13.7153 85.9508 13.7153C86.5158 13.7153 86.9786 14.1782 86.9786 14.7431Z" fill="#00C2A9"/>
<path opacity="0.3" d="M89.7217 14.7431C89.7217 15.3081 89.2588 15.7709 88.6939 15.7709C88.1289 15.7709 87.6661 15.3081 87.6661 14.7431C87.6661 14.1782 88.1289 13.7153 88.6939 13.7153C89.2588 13.7153 89.7217 14.1782 89.7217 14.7431Z" fill="#00C2A9"/>
<path opacity="0.4" d="M92.4648 14.7431C92.4648 15.3081 92.0019 15.7709 91.437 15.7709C90.872 15.7709 90.4092 15.3081 90.4092 14.7431C90.4092 14.1782 90.872 13.7153 91.437 13.7153C92.0019 13.7153 92.4648 14.1782 92.4648 14.7431Z" fill="#00C2A9"/>
<path opacity="0.5" d="M95.2078 14.7431C95.2078 15.3081 94.745 15.7709 94.18 15.7709C93.6151 15.7709 93.1522 15.3081 93.1522 14.7431C93.1522 14.1782 93.6151 13.7153 94.18 13.7153C94.745 13.7153 95.2078 14.1782 95.2078 14.7431Z" fill="#00C2A9"/>
<path opacity="0.6" d="M97.9508 14.7431C97.9508 15.3081 97.488 15.7709 96.9231 15.7709C96.3581 15.7709 95.8953 15.3081 95.8953 14.7431C95.8953 14.1782 96.3581 13.7153 96.9231 13.7153C97.488 13.7153 97.9508 14.1782 97.9508 14.7431Z" fill="#00C2A9"/>
<path opacity="0.7" d="M100.694 14.7431C100.694 15.3081 100.231 15.7709 99.6661 15.7709C99.1011 15.7709 98.6383 15.3081 98.6383 14.7431C98.6383 14.1782 99.1011 13.7153 99.6661 13.7153C100.231 13.7153 100.694 14.1782 100.694 14.7431Z" fill="#00C2A9"/>
<path opacity="0.8" d="M103.437 14.7431C103.437 15.3081 102.974 15.7709 102.409 15.7709C101.844 15.7709 101.381 15.3081 101.381 14.7431C101.381 14.1782 101.844 13.7153 102.409 13.7153C102.974 13.7153 103.437 14.1782 103.437 14.7431Z" fill="#00C2A9"/>
<path opacity="0.9" d="M106.18 14.7431C106.18 15.3081 105.717 15.7709 105.152 15.7709C104.587 15.7709 104.124 15.3081 104.124 14.7431C104.124 14.1782 104.587 13.7153 105.152 13.7153C105.717 13.7153 106.18 14.1782 106.18 14.7431Z" fill="#00C2A9"/>
<path d="M108.923 14.7431C108.923 15.3081 108.46 15.7709 107.895 15.7709C107.33 15.7709 106.867 15.3081 106.867 14.7431C106.867 14.1782 107.33 13.7153 107.895 13.7153C108.46 13.7153 108.923 14.1782 108.923 14.7431Z" fill="#00C2A9"/>
<path opacity="0.2" d="M89.7217 17.486C89.7217 18.051 89.2589 18.5138 88.6939 18.5138C88.129 18.5138 87.6661 18.0578 87.6661 17.486C87.6661 16.9143 88.129 16.4583 88.6939 16.4583C89.2589 16.4583 89.7217 16.9211 89.7217 17.486Z" fill="#0058D4"/>
<path opacity="0.33" d="M92.4648 17.486C92.4648 18.051 92.0019 18.5138 91.437 18.5138C90.872 18.5138 90.4092 18.0578 90.4092 17.486C90.4092 16.9143 90.872 16.4583 91.437 16.4583C92.0019 16.4583 92.4648 16.9211 92.4648 17.486Z" fill="#0058D4"/>
<path opacity="0.47" d="M95.2079 17.486C95.2079 18.051 94.745 18.5138 94.1801 18.5138C93.6151 18.5138 93.1523 18.0578 93.1523 17.486C93.1523 16.9143 93.6151 16.4583 94.1801 16.4583C94.745 16.4583 95.2079 16.9211 95.2079 17.486Z" fill="#0058D4"/>
<path opacity="0.6" d="M97.9509 17.486C97.9509 18.051 97.4881 18.5138 96.9231 18.5138C96.3582 18.5138 95.8953 18.0578 95.8953 17.486C95.8953 16.9143 96.3582 16.4583 96.9231 16.4583C97.4881 16.4583 97.9509 16.9211 97.9509 17.486Z" fill="#0058D4"/>
<path opacity="0.73" d="M100.694 17.486C100.694 18.051 100.238 18.5138 99.6661 18.5138C99.0943 18.5138 98.6383 18.0578 98.6383 17.486C98.6383 16.9143 99.1011 16.4583 99.6661 16.4583C100.231 16.4583 100.694 16.9211 100.694 17.486Z" fill="#0058D4"/>
<path opacity="0.87" d="M103.437 17.486C103.437 18.051 102.981 18.5138 102.409 18.5138C101.837 18.5138 101.381 18.0578 101.381 17.486C101.381 16.9143 101.844 16.4583 102.409 16.4583C102.974 16.4583 103.437 16.9211 103.437 17.486Z" fill="#0058D4"/>
<path d="M106.18 17.486C106.18 18.051 105.724 18.5138 105.152 18.5138C104.58 18.5138 104.124 18.0578 104.124 17.486C104.124 16.9143 104.587 16.4583 105.152 16.4583C105.717 16.4583 106.18 16.9211 106.18 17.486Z" fill="#0058D4"/>
<path opacity="0.2" d="M97.9508 12C97.9508 12.5717 97.4948 13.0278 96.9231 13.0278C96.3513 13.0278 95.8953 12.5649 95.8953 12C95.8953 11.435 96.3581 10.9722 96.9231 10.9722C97.488 10.9722 97.9508 11.4282 97.9508 12Z" fill="#37AA0B"/>
<path opacity="0.36" d="M100.694 12C100.694 12.5717 100.238 13.0278 99.6661 13.0278C99.0943 13.0278 98.6383 12.5649 98.6383 12C98.6383 11.435 99.1011 10.9722 99.6661 10.9722C100.231 10.9722 100.694 11.4282 100.694 12Z" fill="#37AA0B"/>
<path opacity="0.52" d="M103.437 12C103.437 12.5717 102.981 13.0278 102.409 13.0278C101.837 13.0278 101.381 12.5649 101.381 12C101.381 11.435 101.844 10.9722 102.409 10.9722C102.974 10.9722 103.437 11.4282 103.437 12Z" fill="#37AA0B"/>
<path opacity="0.68" d="M106.18 12C106.18 12.5717 105.724 13.0278 105.152 13.0278C104.58 13.0278 104.124 12.5649 104.124 12C104.124 11.435 104.587 10.9722 105.152 10.9722C105.717 10.9722 106.18 11.4282 106.18 12Z" fill="#37AA0B"/>
<path opacity="0.84" d="M108.923 12C108.923 12.5717 108.467 13.0278 107.895 13.0278C107.323 13.0278 106.867 12.5649 106.867 12C106.867 11.435 107.33 10.9722 107.895 10.9722C108.46 10.9722 108.923 11.4282 108.923 12Z" fill="#37AA0B"/>
<path d="M111.666 12C111.666 12.5717 111.21 13.0278 110.638 13.0278C110.067 13.0278 109.611 12.5649 109.611 12C109.611 11.435 110.073 10.9722 110.638 10.9722C111.203 10.9722 111.666 11.4282 111.666 12Z" fill="#37AA0B"/>
<path opacity="0.2" d="M95.2078 20.2292C95.2078 20.7942 94.7518 21.257 94.18 21.257C93.6083 21.257 93.1522 20.7942 93.1522 20.2292C93.1522 19.6643 93.6151 19.2014 94.18 19.2014C94.745 19.2014 95.2078 19.6643 95.2078 20.2292Z" fill="#1900D4"/>
<path opacity="0.47" d="M97.9508 20.2292C97.9508 20.7942 97.488 21.257 96.9231 21.257C96.3581 21.257 95.8953 20.7942 95.8953 20.2292C95.8953 19.6643 96.3581 19.2014 96.9231 19.2014C97.488 19.2014 97.9508 19.6643 97.9508 20.2292Z" fill="#1900D4"/>
<path opacity="0.73" d="M100.694 20.2292C100.694 20.7942 100.231 21.257 99.6661 21.257C99.1011 21.257 98.6383 20.7942 98.6383 20.2292C98.6383 19.6643 99.1011 19.2014 99.6661 19.2014C100.231 19.2014 100.694 19.6643 100.694 20.2292Z" fill="#1900D4"/>
<path d="M103.437 20.2292C103.437 20.7942 102.974 21.257 102.409 21.257C101.844 21.257 101.381 20.7942 101.381 20.2292C101.381 19.6643 101.844 19.2014 102.409 19.2014C102.974 19.2014 103.437 19.6643 103.437 20.2292Z" fill="#1900D4"/>
<path opacity="0.2" d="M92.4648 22.9721C92.4648 23.5371 92.0019 23.9999 91.437 23.9999C90.872 23.9999 90.4092 23.5371 90.4092 22.9721C90.4092 22.4072 90.872 21.9443 91.437 21.9443C92.0019 21.9443 92.4648 22.4072 92.4648 22.9721Z" fill="#9B1398"/>
<path opacity="0.47" d="M95.2078 22.9721C95.2078 23.5371 94.745 23.9999 94.18 23.9999C93.6151 23.9999 93.1522 23.5371 93.1522 22.9721C93.1522 22.4072 93.6151 21.9443 94.18 21.9443C94.745 21.9443 95.2078 22.4072 95.2078 22.9721Z" fill="#9B1398"/>
<path opacity="0.73" d="M97.9508 22.9721C97.9508 23.5371 97.488 23.9999 96.9231 23.9999C96.3581 23.9999 95.8953 23.5371 95.8953 22.9721C95.8953 22.4072 96.3513 21.9443 96.9231 21.9443C97.4948 21.9443 97.9508 22.4072 97.9508 22.9721Z" fill="#9B1398"/>
<path d="M100.694 22.9721C100.694 23.5371 100.231 23.9999 99.6661 23.9999C99.1011 23.9999 98.6383 23.5371 98.6383 22.9721C98.6383 22.4072 99.0943 21.9443 99.6661 21.9443C100.238 21.9443 100.694 22.4072 100.694 22.9721Z" fill="#9B1398"/>
<path d="M103.437 1.02779C103.437 1.59955 102.974 2.05559 102.409 2.05559C101.844 2.05559 101.381 1.59274 101.381 1.02779C101.381 0.462847 101.844 0 102.409 0C102.974 0 103.437 0.462847 103.437 1.02779ZM105.152 0C104.587 0 104.124 0.462847 104.124 1.02779C104.124 1.59274 104.587 2.05559 105.152 2.05559C105.717 2.05559 106.18 1.59274 106.18 1.02779C106.18 0.462847 105.724 0 105.152 0ZM107.895 0C107.33 0 106.868 0.462847 106.868 1.02779C106.868 1.59274 107.33 2.05559 107.895 2.05559C108.46 2.05559 108.923 1.59274 108.923 1.02779C108.923 0.462847 108.46 0 107.895 0ZM105.152 2.74305C104.587 2.74305 104.124 3.2059 104.124 3.77085C104.124 4.33579 104.587 4.79864 105.152 4.79864C105.717 4.79864 106.18 4.33579 106.18 3.77085C106.18 3.2059 105.724 2.74305 105.152 2.74305ZM107.895 2.74305C107.33 2.74305 106.868 3.2059 106.868 3.77085C106.868 4.33579 107.33 4.79864 107.895 4.79864C108.46 4.79864 108.923 4.33579 108.923 3.77085C108.923 3.2059 108.46 2.74305 107.895 2.74305ZM110.638 2.74305C110.073 2.74305 109.611 3.2059 109.611 3.77085C109.611 4.33579 110.073 4.79864 110.638 4.79864C111.203 4.79864 111.666 4.33579 111.666 3.77085C111.666 3.2059 111.21 2.74305 110.638 2.74305ZM107.895 5.4861C107.33 5.4861 106.868 5.94214 106.868 6.5139C106.868 7.08565 107.33 7.5485 107.895 7.5485C108.46 7.5485 108.923 7.08565 108.923 6.5139C108.923 5.94214 108.46 5.4861 107.895 5.4861ZM110.638 5.4861C110.073 5.4861 109.611 5.94214 109.611 6.5139C109.611 7.08565 110.073 7.5485 110.638 7.5485C111.203 7.5485 111.666 7.08565 111.666 6.5139C111.666 5.94214 111.21 5.4861 110.638 5.4861ZM113.381 5.4861C112.816 5.4861 112.354 5.94214 112.354 6.5139C112.354 7.08565 112.816 7.5485 113.381 7.5485C113.946 7.5485 114.409 7.08565 114.409 6.5139C114.409 5.94214 113.953 5.4861 113.381 5.4861ZM110.638 8.22916C110.073 8.22916 109.611 8.692 109.611 9.25695C109.611 9.82189 110.073 10.2847 110.638 10.2847C111.203 10.2847 111.666 9.82189 111.666 9.25695C111.666 8.692 111.21 8.22916 110.638 8.22916ZM113.381 8.22916C112.816 8.22916 112.354 8.692 112.354 9.25695C112.354 9.82189 112.816 10.2847 113.381 10.2847C113.946 10.2847 114.409 9.82189 114.409 9.25695C114.409 8.692 113.953 8.22916 113.381 8.22916ZM116.124 8.22916C115.553 8.22916 115.097 8.692 115.097 9.25695C115.097 9.82189 115.553 10.2847 116.124 10.2847C116.696 10.2847 117.152 9.82189 117.152 9.25695C117.152 8.692 116.689 8.22916 116.124 8.22916ZM110.638 13.7153C110.073 13.7153 109.611 14.1781 109.611 14.7431C109.611 15.308 110.073 15.7708 110.638 15.7708C111.203 15.7708 111.666 15.308 111.666 14.7431C111.666 14.1781 111.21 13.7153 110.638 13.7153ZM113.381 13.7153C112.816 13.7153 112.354 14.1781 112.354 14.7431C112.354 15.308 112.816 15.7708 113.381 15.7708C113.946 15.7708 114.409 15.308 114.409 14.7431C114.409 14.1781 113.953 13.7153 113.381 13.7153ZM116.124 13.7153C115.553 13.7153 115.097 14.1781 115.097 14.7431C115.097 15.308 115.553 15.7708 116.124 15.7708C116.696 15.7708 117.152 15.308 117.152 14.7431C117.152 14.1781 116.689 13.7153 116.124 13.7153ZM107.895 16.4583C107.33 16.4583 106.868 16.9212 106.868 17.4861C106.868 18.0511 107.33 18.5139 107.895 18.5139C108.46 18.5139 108.923 18.0579 108.923 17.4861C108.923 16.9144 108.46 16.4583 107.895 16.4583ZM113.381 10.9722C112.816 10.9722 112.354 11.4282 112.354 12C112.354 12.5718 112.816 13.0278 113.381 13.0278C113.946 13.0278 114.409 12.5649 114.409 12C114.409 11.4351 113.953 10.9722 113.381 10.9722ZM116.124 10.9722C115.553 10.9722 115.097 11.4282 115.097 12C115.097 12.5718 115.553 13.0278 116.124 13.0278C116.696 13.0278 117.152 12.5649 117.152 12C117.152 11.4351 116.689 10.9722 116.124 10.9722ZM118.868 10.9722C118.296 10.9722 117.84 11.4282 117.84 12C117.84 12.5718 118.303 13.0278 118.868 13.0278C119.432 13.0278 119.895 12.5649 119.895 12C119.895 11.4351 119.432 10.9722 118.868 10.9722ZM110.638 16.4583C110.073 16.4583 109.611 16.9212 109.611 17.4861C109.611 18.0511 110.073 18.5139 110.638 18.5139C111.203 18.5139 111.666 18.0579 111.666 17.4861C111.666 16.9144 111.21 16.4583 110.638 16.4583ZM113.381 16.4583C112.816 16.4583 112.354 16.9212 112.354 17.4861C112.354 18.0511 112.816 18.5139 113.381 18.5139C113.946 18.5139 114.409 18.0579 114.409 17.4861C114.409 16.9144 113.953 16.4583 113.381 16.4583ZM105.152 19.2014C104.587 19.2014 104.124 19.6642 104.124 20.2292C104.124 20.7941 104.587 21.2569 105.152 21.2569C105.717 21.2569 106.18 20.7941 106.18 20.2292C106.18 19.6642 105.724 19.2014 105.152 19.2014ZM107.895 19.2014C107.33 19.2014 106.868 19.6642 106.868 20.2292C106.868 20.7941 107.33 21.2569 107.895 21.2569C108.46 21.2569 108.923 20.7941 108.923 20.2292C108.923 19.6642 108.46 19.2014 107.895 19.2014ZM110.638 19.2014C110.073 19.2014 109.611 19.6642 109.611 20.2292C109.611 20.7941 110.073 21.2569 110.638 21.2569C111.203 21.2569 111.666 20.7941 111.666 20.2292C111.666 19.6642 111.21 19.2014 110.638 19.2014ZM102.409 21.9444C101.837 21.9444 101.381 22.4073 101.381 22.9722C101.381 23.5372 101.844 24 102.409 24C102.974 24 103.437 23.5372 103.437 22.9722C103.437 22.4073 102.974 21.9444 102.409 21.9444ZM105.152 21.9444C104.587 21.9444 104.124 22.4073 104.124 22.9722C104.124 23.5372 104.587 24 105.152 24C105.717 24 106.18 23.5372 106.18 22.9722C106.18 22.4073 105.724 21.9444 105.152 21.9444ZM107.895 21.9444C107.33 21.9444 106.868 22.4073 106.868 22.9722C106.868 23.5372 107.33 24 107.895 24C108.46 24 108.923 23.5372 108.923 22.9722C108.923 22.4073 108.46 21.9444 107.895 21.9444Z" fill="white"/>
</g>
<defs>
<clipPath id="clip0_160_3230">
<rect width="119.895" height="24" fill="white"/>
</clipPath>
</defs>
</svg>
