<svg width="113" height="24" viewBox="0 0 113 24" fill="none" xmlns="http://www.w3.org/2000/svg">
<path d="M92.2195 14.2074C92.2195 15.9547 90.6886 17.0763 88.2989 17.0763C85.7462 17.0763 84.1887 15.9147 84.0788 13.9212H86.2787C86.4551 14.7965 87.1108 15.2191 88.2856 15.2191C89.3639 15.2191 90.0196 14.7565 90.0196 13.9644C90.0196 13.1723 89.4738 12.8595 88.2024 12.8595H86.9743V11.029H88.1891C89.3639 11.029 89.8565 10.7428 89.8565 10.0605C89.8565 9.37822 89.2275 8.94223 88.2324 8.94223C87.2372 8.94223 86.5949 9.32497 86.4585 10.0472H84.2585C84.4216 8.15013 85.8694 7.08511 88.259 7.08511C90.6486 7.08511 92.0564 8.15013 92.0564 9.83085C92.0564 10.9924 91.484 11.7013 90.4057 11.8644C91.5672 12.0407 92.2228 12.8761 92.2228 14.214L92.2195 14.2074Z" fill="#727272"/>
<path d="M101.618 13.6883C101.618 15.7218 100.033 17.0763 97.6438 17.0763C94.8981 17.0763 93.4237 15.5188 93.4237 12.57C93.4237 8.95229 94.9247 7.08186 97.7536 7.08186C99.8038 7.08186 101.168 8.13356 101.415 9.89416H99.228C99.0217 9.26514 98.5058 8.93898 97.6837 8.93898C96.3858 8.93898 95.7168 9.78433 95.6369 11.6281C96.1561 11.0956 97.0847 10.7528 98.0665 10.7528C100.293 10.7528 101.618 11.8445 101.618 13.6883ZM99.4177 13.7282C99.4177 12.8828 98.802 12.4036 97.6571 12.4036C96.632 12.4036 95.6236 12.9095 95.6236 13.4952C95.6236 14.5602 96.3891 15.2159 97.5905 15.2159C98.6955 15.2159 99.421 14.6301 99.421 13.7282H99.4177Z" fill="#727272"/>
<path d="M102.793 12.0775C102.793 8.66282 104.241 7.07861 107.326 7.07861C110.411 7.07861 111.859 8.66282 111.859 12.0775C111.859 15.4922 110.411 17.0764 107.326 17.0764C104.241 17.0764 102.793 15.4922 102.793 12.0775ZM109.663 12.0775C109.663 9.89091 108.967 9.05887 107.326 9.05887C105.685 9.05887 104.99 9.89091 104.99 12.0775C104.99 14.2641 105.672 15.0962 107.326 15.0962C108.98 15.0962 109.663 14.2641 109.663 12.0775Z" fill="#727272"/>
<path d="M31.6101 13.4282L30.7214 7.29774H32.908L33.8499 13.7311C33.9997 14.7295 34.246 15.0956 34.7385 15.0956C35.2311 15.0956 35.4907 14.7262 35.6405 13.7311L36.569 7.29774H38.7689L39.7108 13.7311C39.8606 14.7295 40.1068 15.0956 40.5994 15.0956C41.092 15.0956 41.3516 14.7262 41.5013 13.7311L42.4299 7.29774H44.6298L43.7279 13.4282C43.3185 16.1174 42.5397 17.0759 40.7359 17.0759C38.932 17.0759 38.1399 16.0508 37.9502 13.6079L37.7039 10.7391H37.6507L37.3911 13.6079C37.2014 16.0508 36.366 17.0759 34.6054 17.0759C32.8448 17.0759 32.0261 16.1207 31.6134 13.4282H31.6101Z" fill="#DADADA"/>
<path d="M54.4181 16.8562H52.2315L51.8754 14.4133H47.9549L47.5987 16.8562H45.4121L46.2875 10.8056C46.7101 8.07315 47.6653 7.07803 49.9052 7.07803C52.145 7.07803 53.1135 8.07648 53.5229 10.8056L54.4115 16.8562H54.4181ZM51.5759 12.4164L51.3696 10.982C51.1499 9.53421 50.7971 9.05496 49.9085 9.05496C49.0199 9.05496 48.6804 9.53421 48.4607 10.982L48.2544 12.4164H51.5759Z" fill="#DADADA"/>
<path d="M59.8127 16.8562H57.6128V9.278H54.6907V7.29774H62.7349V9.278H59.8127V16.8562Z" fill="#DADADA"/>
<path d="M63.6637 12.0769C63.6637 8.66223 65.1115 7.07803 68.1967 7.07803C70.9291 7.07803 72.3469 8.27949 72.6631 10.9154H70.4498C70.2169 9.63073 69.5479 9.05828 68.1967 9.05828C66.5592 9.05828 65.8603 9.90364 65.8603 12.0769C65.8603 14.2502 66.5559 15.0956 68.1967 15.0956C69.5479 15.0956 70.2169 14.5231 70.4498 13.2385H72.6631C72.3502 15.8744 70.9291 17.0758 68.1967 17.0758C65.1115 17.0758 63.6637 15.4916 63.6637 12.0769Z" fill="#DADADA"/>
<path d="M80.394 10.9422V7.29449H82.5939V16.853H80.394V12.9324H76.5034V16.853H74.3034V7.29449H76.5034V10.9422H80.394Z" fill="#DADADA"/>
<path d="M12.0186 23.9957C11.4062 23.9957 10.7905 23.9491 10.1715 23.8559C7.00639 23.37 4.22072 21.686 2.32367 19.1066C0.429947 16.5273 -0.342186 13.3689 0.140397 10.2071C1.1455 3.68393 7.27597 -0.812415 13.8125 0.196018C15.3468 0.432317 16.7978 0.95151 18.1291 1.74028C18.6183 2.02983 18.7781 2.66219 18.4852 3.15143C18.1923 3.64066 17.56 3.79709 17.0708 3.50754C15.9691 2.85189 14.7677 2.42256 13.4963 2.2262C8.08805 1.40081 3.00927 5.11837 2.18056 10.52C1.77785 13.1392 2.42352 15.7518 3.99108 17.8885C5.55864 20.0219 7.86839 21.4197 10.491 21.8224C15.9059 22.6544 20.9813 18.9302 21.8134 13.532C22.0064 12.2673 21.9565 10.9892 21.6603 9.74451C21.5272 9.19204 21.8733 8.63623 22.4258 8.50644C22.9816 8.37664 23.534 8.71944 23.6638 9.27191C24.0199 10.7762 24.0832 12.3139 23.8469 13.8448C23.361 17.0032 21.6703 19.7856 19.0909 21.6793C17.0142 23.2003 14.5547 23.999 12.0219 23.999L12.0186 23.9957ZM12.7242 15.1727L26.16 1.75693C26.5627 1.35422 26.5627 0.705226 26.16 0.302519C25.7572 -0.100189 25.1049 -0.100189 24.7022 0.302519L11.992 12.9895L7.87171 8.87586C7.46901 8.47315 6.81669 8.47315 6.41398 8.87586C6.01127 9.27857 6.01127 9.92756 6.41398 10.3303L11.2631 15.1694C11.4628 15.3691 11.7291 15.4723 11.9886 15.4723C12.2482 15.4723 12.5145 15.3724 12.7142 15.1694H12.7208L12.7242 15.1727Z" fill="#DADADA"/>
</svg>
