<svg preserveAspectRatio="none" width="100%" height="100%" overflow="visible" style="display: block;" viewBox="0 0 721 242.664" fill="none" xmlns="http://www.w3.org/2000/svg">
<g id="Frame 21233">
<mask id="mask0_0_4" style="mask-type:alpha" maskUnits="userSpaceOnUse" x="0" y="0" width="721" height="243">
<g id="Vector">
<path d="M490.58 238.467H305.564V239.167H201.443V239.517H0V240.216H201.443V240.566H305.564V241.265H490.58V242.664H721V237.068H490.58V238.467Z" fill="var(--fill-0, #0D0D0D)"/>
<path d="M490.58 226.611H305.564V227.311H201.443V227.66H0V228.36H201.443V228.71H305.564V229.409H490.58V230.808H721V225.212H490.58V226.611Z" fill="var(--fill-0, #0D0D0D)"/>
<path d="M490.58 214.755H305.564V215.454H201.443V215.804H0V216.504H201.443V216.853H305.564V217.553H490.58V218.952H721V213.356H490.58V214.755Z" fill="var(--fill-0, #0D0D0D)"/>
<path d="M490.58 202.906H305.564V203.605H201.443V203.955H0V204.655H201.443V205.004H305.564V205.704H490.58V207.103H721V201.507H490.58V202.906Z" fill="var(--fill-0, #0D0D0D)"/>
<path d="M490.58 191.049H305.564V191.749H201.443V192.099H0V192.798H201.443V193.148H305.564V193.847H490.58V195.246H721V189.651H490.58V191.049Z" fill="var(--fill-0, #0D0D0D)"/>
<path d="M490.58 179.2H305.564V179.9H201.443V180.25H0V180.949H201.443V181.299H305.564V181.998H490.58V183.397H721V177.801H490.58V179.2Z" fill="var(--fill-0, #0D0D0D)"/>
<path d="M490.58 167.344H305.564V168.044H201.443V168.393H0V169.093H201.443V169.443H305.564V170.142H490.58V171.541H721V165.945H490.58V167.344Z" fill="var(--fill-0, #0D0D0D)"/>
<path d="M519.557 156.194H415.436V155.495H230.42V154.096H0V159.692H230.42V158.293H415.436V157.593H519.557V157.244H721V156.544H519.557V156.194Z" fill="var(--fill-0, #0D0D0D)"/>
<path d="M519.557 144.338H415.436V143.639H230.42V142.24H0V147.836H230.42V146.437H415.436V145.737H519.557V145.387H721V144.688H519.557V144.338Z" fill="var(--fill-0, #0D0D0D)"/>
<path d="M519.557 132.482H415.436V131.782H230.42V130.383H0V135.979H230.42V134.58H415.436V133.881H519.557V133.531H721V132.832H519.557V132.482Z" fill="var(--fill-0, #0D0D0D)"/>
<path d="M519.557 120.633H415.436V119.933H230.42V118.534H0V124.13H230.42V122.731H415.436V122.032H519.557V121.682H721V120.982H519.557V120.633Z" fill="var(--fill-0, #0D0D0D)"/>
<path d="M519.557 108.776H415.436V108.077H230.42V106.678H0V112.274H230.42V110.875H415.436V110.175H519.557V109.826H721V109.126H519.557V108.776Z" fill="var(--fill-0, #0D0D0D)"/>
<path d="M519.557 96.9273H415.436V96.2278H230.42V94.8288H0V100.425H230.42V99.0257H415.436V98.3262H519.557V97.9765H721V97.277H519.557V96.9273Z" fill="var(--fill-0, #0D0D0D)"/>
<path d="M519.557 85.0711H415.436V84.3716H230.42V82.9726H0V88.5685H230.42V87.1695H415.436V86.47H519.557V86.1203H721V85.4208H519.557V85.0711Z" fill="var(--fill-0, #0D0D0D)"/>
<path d="M490.58 72.5152H305.564V73.2147H201.443V73.5645H0V74.2639H201.443V74.6137H305.564V75.3132H490.58V76.7121H721V71.1163H490.58V72.5152Z" fill="var(--fill-0, #0D0D0D)"/>
<path d="M490.58 60.6661H305.564V61.3655H201.443V61.7153H0V62.4148H201.443V62.7645H305.564V63.464H490.58V64.8629H721V59.2671H490.58V60.6661Z" fill="var(--fill-0, #0D0D0D)"/>
<path d="M490.58 48.8099H305.564V49.5093H201.443V49.8591H0V50.5586H201.443V50.9083H305.564V51.6078H490.58V53.0068H721V47.4109H490.58V48.8099Z" fill="var(--fill-0, #0D0D0D)"/>
<path d="M490.58 36.9607H305.564V37.6602H201.443V38.0099H0V38.7094H201.443V39.0591H305.564V39.7586H490.58V41.1576H721V35.5617H490.58V36.9607Z" fill="var(--fill-0, #0D0D0D)"/>
<path d="M490.58 25.1043H305.564V25.8038H201.443V26.1535H0V26.853H201.443V27.2028H305.564V27.9022H490.58V29.3012H721V23.7053H490.58V25.1043Z" fill="var(--fill-0, #0D0D0D)"/>
<path d="M490.58 13.2551H305.564V13.9546H201.443V14.3043H0V15.0038H201.443V15.3536H305.564V16.0531H490.58V17.452H721V11.8562H490.58V13.2551Z" fill="var(--fill-0, #0D0D0D)"/>
<path d="M490.58 0V1.39896H305.564V2.09845H201.443V2.44819H0V3.14767H201.443V3.49741H305.564V4.19689H490.58V5.59586H721V0H490.58Z" fill="var(--fill-0, #0D0D0D)"/>
</g>
</mask>
<g mask="url(#mask0_0_4)">
<g id="Ellipse 3869" filter="url(#filter0_f_0_4)">
<circle cx="445" cy="75" r="112" fill="var(--fill-0, #00C3D9)"/>
</g>
<g id="Ellipse 3870" filter="url(#filter1_f_0_4)">
<circle cx="186" cy="235" r="96" fill="var(--fill-0, #044FFF)"/>
</g>
<g id="Ellipse 3871" filter="url(#filter2_f_0_4)">
<circle cx="329" cy="131" r="82" fill="var(--fill-0, #BCFF04)"/>
</g>
</g>
</g>
<defs>
<filter id="filter0_f_0_4" x="133" y="-237" width="624" height="624" filterUnits="userSpaceOnUse" color-interpolation-filters="sRGB">
<feFlood flood-opacity="0" result="BackgroundImageFix"/>
<feBlend mode="normal" in="SourceGraphic" in2="BackgroundImageFix" result="shape"/>
<feGaussianBlur stdDeviation="100" result="effect1_foregroundBlur_0_4"/>
</filter>
<filter id="filter1_f_0_4" x="-110" y="-61" width="592" height="592" filterUnits="userSpaceOnUse" color-interpolation-filters="sRGB">
<feFlood flood-opacity="0" result="BackgroundImageFix"/>
<feBlend mode="normal" in="SourceGraphic" in2="BackgroundImageFix" result="shape"/>
<feGaussianBlur stdDeviation="100" result="effect1_foregroundBlur_0_4"/>
</filter>
<filter id="filter2_f_0_4" x="47" y="-151" width="564" height="564" filterUnits="userSpaceOnUse" color-interpolation-filters="sRGB">
<feFlood flood-opacity="0" result="BackgroundImageFix"/>
<feBlend mode="normal" in="SourceGraphic" in2="BackgroundImageFix" result="shape"/>
<feGaussianBlur stdDeviation="100" result="effect1_foregroundBlur_0_4"/>
</filter>
</defs>
</svg>
