<svg width="30" height="30" viewBox="0 0 30 30" fill="none" xmlns="http://www.w3.org/2000/svg">
<path d="M15.0049 0C8.74254 0 6.91103 0.0064629 6.55502 0.0359999C5.26988 0.142855 4.47019 0.34526 3.59896 0.779131C2.92756 1.11263 2.39803 1.4992 1.87544 2.04109C0.9237 3.02933 0.346884 4.24512 0.138073 5.69033C0.0365584 6.39192 0.0070211 6.535 0.00102299 10.1187C-0.00127874 11.3133 0.00102299 12.8854 0.00102299 14.9941C0.00102299 21.2531 0.00793949 23.0833 0.0379414 23.4387C0.141769 24.6896 0.337881 25.4765 0.75319 26.3374C1.54689 27.9852 3.06275 29.2222 4.84857 29.6838C5.46692 29.8431 6.14987 29.9308 7.02663 29.9723C7.3981 29.9885 11.1843 30 14.9728 30C18.7613 30 22.5499 29.9954 22.9121 29.9769C23.9273 29.9291 24.5168 29.85 25.1686 29.6815C26.966 29.2176 28.4541 27.9991 29.264 26.3281C29.6712 25.4881 29.8777 24.6711 29.9712 23.4855C29.9915 23.227 30 19.1058 30 14.9902C30 10.8738 29.9908 6.76026 29.9705 6.50177C29.8759 5.29706 29.6694 4.487 29.249 3.63076C28.9041 2.92986 28.5211 2.40642 27.965 1.87124C26.9727 0.923153 25.759 0.346178 24.3128 0.137548C23.6121 0.0362268 23.4725 0.00622488 19.8871 0H15.0049Z" fill="url(#paint0_radial_160_4202)"/>
<path d="M15.0049 0C8.74254 0 6.91103 0.0064629 6.55502 0.0359999C5.26988 0.142855 4.47019 0.34526 3.59896 0.779131C2.92756 1.11263 2.39803 1.4992 1.87544 2.04109C0.9237 3.02933 0.346884 4.24512 0.138073 5.69033C0.0365584 6.39192 0.0070211 6.535 0.00102299 10.1187C-0.00127874 11.3133 0.00102299 12.8854 0.00102299 14.9941C0.00102299 21.2531 0.00793949 23.0833 0.0379414 23.4387C0.141769 24.6896 0.337881 25.4765 0.75319 26.3374C1.54689 27.9852 3.06275 29.2222 4.84857 29.6838C5.46692 29.8431 6.14987 29.9308 7.02663 29.9723C7.3981 29.9885 11.1843 30 14.9728 30C18.7613 30 22.5499 29.9954 22.9121 29.9769C23.9273 29.9291 24.5168 29.85 25.1686 29.6815C26.966 29.2176 28.4541 27.9991 29.264 26.3281C29.6712 25.4881 29.8777 24.6711 29.9712 23.4855C29.9915 23.227 30 19.1058 30 14.9902C30 10.8738 29.9908 6.76026 29.9705 6.50177C29.8759 5.29706 29.6694 4.487 29.249 3.63076C28.9041 2.92986 28.5211 2.40642 27.965 1.87124C26.9727 0.923153 25.759 0.346178 24.3128 0.137548C23.6121 0.0362268 23.4725 0.00622488 19.8871 0H15.0049Z" fill="url(#paint1_radial_160_4202)"/>
<path d="M15.0049 0C8.74254 0 6.91103 0.0064629 6.55502 0.0359999C5.26988 0.142855 4.47019 0.34526 3.59896 0.779131C2.92756 1.11263 2.39803 1.4992 1.87544 2.04109C0.9237 3.02933 0.346884 4.24512 0.138073 5.69033C0.0365584 6.39192 0.0070211 6.535 0.00102299 10.1187C-0.00127874 11.3133 0.00102299 12.8854 0.00102299 14.9941C0.00102299 21.2531 0.00793949 23.0833 0.0379414 23.4387C0.141769 24.6896 0.337881 25.4765 0.75319 26.3374C1.54689 27.9852 3.06275 29.2222 4.84857 29.6838C5.46692 29.8431 6.14987 29.9308 7.02663 29.9723C7.3981 29.9885 11.1843 30 14.9728 30C18.7613 30 22.5499 29.9954 22.9121 29.9769C23.9273 29.9291 24.5168 29.85 25.1686 29.6815C26.966 29.2176 28.4541 27.9991 29.264 26.3281C29.6712 25.4881 29.8777 24.6711 29.9712 23.4855C29.9915 23.227 30 19.1058 30 14.9902C30 10.8738 29.9908 6.76026 29.9705 6.50177C29.8759 5.29706 29.6694 4.487 29.249 3.63076C28.9041 2.92986 28.5211 2.40642 27.965 1.87124C26.9727 0.923153 25.759 0.346178 24.3128 0.137548C23.6121 0.0362268 23.4725 0.00622488 19.8871 0H15.0049Z" fill="url(#paint2_radial_160_4202)"/>
<path d="M15.0049 0C8.74254 0 6.91103 0.0064629 6.55502 0.0359999C5.26988 0.142855 4.47019 0.34526 3.59896 0.779131C2.92756 1.11263 2.39803 1.4992 1.87544 2.04109C0.9237 3.02933 0.346884 4.24512 0.138073 5.69033C0.0365584 6.39192 0.0070211 6.535 0.00102299 10.1187C-0.00127874 11.3133 0.00102299 12.8854 0.00102299 14.9941C0.00102299 21.2531 0.00793949 23.0833 0.0379414 23.4387C0.141769 24.6896 0.337881 25.4765 0.75319 26.3374C1.54689 27.9852 3.06275 29.2222 4.84857 29.6838C5.46692 29.8431 6.14987 29.9308 7.02663 29.9723C7.3981 29.9885 11.1843 30 14.9728 30C18.7613 30 22.5499 29.9954 22.9121 29.9769C23.9273 29.9291 24.5168 29.85 25.1686 29.6815C26.966 29.2176 28.4541 27.9991 29.264 26.3281C29.6712 25.4881 29.8777 24.6711 29.9712 23.4855C29.9915 23.227 30 19.1058 30 14.9902C30 10.8738 29.9908 6.76026 29.9705 6.50177C29.8759 5.29706 29.6694 4.487 29.249 3.63076C28.9041 2.92986 28.5211 2.40642 27.965 1.87124C26.9727 0.923153 25.759 0.346178 24.3128 0.137548C23.6121 0.0362268 23.4725 0.00622488 19.8871 0H15.0049Z" fill="url(#paint3_radial_160_4202)"/>
<path d="M15.0067 3.85205C11.9774 3.85205 11.5972 3.86528 10.4075 3.91939C9.22 3.97372 8.40946 4.16158 7.70023 4.43722C6.96661 4.7219 6.34429 5.10272 5.72431 5.72248C5.10386 6.34202 4.72275 6.96386 4.43693 7.6967C4.16039 8.40564 3.97216 9.2158 3.91872 10.4019C3.86551 11.5908 3.85156 11.9709 3.85156 14.998C3.85156 18.0251 3.86504 18.4038 3.91895 19.5927C3.97357 20.7793 4.16156 21.5892 4.43716 22.2979C4.72229 23.031 5.10339 23.6528 5.72361 24.2723C6.34337 24.8923 6.96568 25.2741 7.69883 25.5588C8.40852 25.8344 9.2193 26.0223 10.4065 26.0766C11.5963 26.1307 11.9762 26.1439 15.0053 26.1439C18.0349 26.1439 18.4139 26.1307 19.6036 26.0766C20.7911 26.0223 21.6026 25.8344 22.3123 25.5588C23.0457 25.2741 23.667 24.8923 24.2868 24.2723C24.9072 23.6528 25.2884 23.031 25.5742 22.2981C25.8484 21.5892 26.0366 20.779 26.0924 19.5929C26.1458 18.404 26.1598 18.025 26.1598 14.998C26.1598 11.9709 26.1458 11.5911 26.0924 10.4021C26.0366 9.21556 25.8484 8.40564 25.5742 7.69694C25.2884 6.96386 24.9072 6.342 24.2868 5.72248C23.6663 5.10248 23.0459 4.72166 22.3116 4.43721C21.6005 4.16158 20.7895 3.97372 19.602 3.91939C18.4122 3.86528 18.0335 3.85205 15.0032 3.85205H15.0067ZM14.0061 5.86065C14.3031 5.86018 14.6344 5.86065 15.0067 5.86065C17.9849 5.86065 18.3379 5.87133 19.5139 5.92473C20.6015 5.97443 21.1917 6.15601 21.5849 6.30857C22.1054 6.51059 22.4766 6.75209 22.8667 7.14219C23.2571 7.53231 23.4988 7.90384 23.7014 8.42397C23.8541 8.8164 24.0361 9.40621 24.0855 10.4929C24.139 11.6679 24.1506 12.0209 24.1506 14.9954C24.1506 17.97 24.139 18.323 24.0855 19.4979C24.0358 20.5847 23.8541 21.1745 23.7014 21.5669C23.4993 22.087 23.2571 22.4574 22.8667 22.8473C22.4763 23.2374 22.1057 23.4789 21.5849 23.6809C21.1922 23.8342 20.6015 24.0153 19.5139 24.065C18.3381 24.1184 17.9849 24.13 15.0067 24.13C12.0283 24.13 11.6753 24.1184 10.4995 24.065C9.41195 24.0148 8.82171 23.8332 8.42828 23.6807C7.90775 23.4787 7.53593 23.2372 7.14555 22.8471C6.75515 22.457 6.51348 22.0864 6.31083 21.566C6.15816 21.1735 5.97621 20.5837 5.92672 19.497C5.87327 18.322 5.86257 17.9691 5.86257 14.9927C5.86257 12.0162 5.87327 11.6651 5.92672 10.4902C5.97645 9.40342 6.15816 8.81362 6.31083 8.42073C6.513 7.90058 6.75515 7.52905 7.14555 7.13895C7.53593 6.74883 7.90775 6.50734 8.42828 6.30486C8.82147 6.1516 9.41195 5.97048 10.4995 5.92055C11.5285 5.87411 11.9272 5.86018 14.0061 5.85785L14.0061 5.86065ZM20.9607 7.71133C20.2218 7.71133 19.6222 8.30974 19.6222 9.04838C19.6222 9.7868 20.2218 10.3859 20.9607 10.3859C21.6997 10.3859 22.2993 9.7868 22.2993 9.04838C22.2993 8.30996 21.6997 7.71088 20.9607 7.71088L20.9607 7.71133ZM15.0067 9.27408C11.8433 9.27408 9.27856 11.837 9.27856 14.998C9.27856 18.159 11.8433 20.7207 15.0067 20.7207C18.1701 20.7207 20.7339 18.159 20.7339 14.998C20.7339 11.837 18.1699 9.27408 15.0065 9.27408H15.0067ZM15.0067 11.2827C17.06 11.2827 18.7248 12.946 18.7248 14.998C18.7248 17.0498 17.06 18.7133 15.0067 18.7133C12.9532 18.7133 11.2886 17.0498 11.2886 14.998C11.2886 12.946 12.9532 11.2827 15.0067 11.2827Z" fill="white"/>
<defs>
<radialGradient id="paint0_radial_160_4202" cx="0" cy="0" r="1" gradientTransform="matrix(-18.4487 5.20295 -3.74853 -13.2914 29.0313 14.0614)" gradientUnits="userSpaceOnUse">
<stop stop-color="#FF005F"/>
<stop offset="1" stop-color="#FC01D8"/>
</radialGradient>
<radialGradient id="paint1_radial_160_4202" cx="0" cy="0" r="1" gradientUnits="userSpaceOnUse" gradientTransform="translate(7.96852 32.3106) rotate(-90) scale(23.9466 25.4068)">
<stop stop-color="#FFCC00"/>
<stop offset="0.1242" stop-color="#FFCC00"/>
<stop offset="0.5672" stop-color="#FE4A05"/>
<stop offset="0.6942" stop-color="#FF0F3F"/>
<stop offset="1" stop-color="#FE0657" stop-opacity="0"/>
</radialGradient>
<radialGradient id="paint2_radial_160_4202" cx="0" cy="0" r="1" gradientTransform="matrix(4.97045 -8.56425 11.1497 6.471 15.7581 29.5769)" gradientUnits="userSpaceOnUse">
<stop stop-color="#FFCC00"/>
<stop offset="1" stop-color="#FFCC00" stop-opacity="0"/>
</radialGradient>
<radialGradient id="paint3_radial_160_4202" cx="0" cy="0" r="1" gradientTransform="matrix(-18.2461 5.1378 -1.75 -6.21656 4.07036 1.22159)" gradientUnits="userSpaceOnUse">
<stop stop-color="#780CFF"/>
<stop offset="1" stop-color="#820BFF" stop-opacity="0"/>
</radialGradient>
</defs>
</svg>
