<svg width="113" height="31" viewBox="0 0 113 31" fill="none" xmlns="http://www.w3.org/2000/svg">
<path d="M92.2195 14.2074C92.2195 15.9547 90.6886 17.0763 88.2989 17.0763C85.7462 17.0763 84.1887 15.9147 84.0788 13.9212H86.2787C86.4551 14.7965 87.1108 15.2191 88.2856 15.2191C89.3639 15.2191 90.0196 14.7565 90.0196 13.9644C90.0196 13.1723 89.4738 12.8595 88.2024 12.8595H86.9743V11.029H88.1891C89.3639 11.029 89.8565 10.7428 89.8565 10.0605C89.8565 9.37822 89.2275 8.94223 88.2324 8.94223C87.2372 8.94223 86.5949 9.32497 86.4585 10.0472H84.2585C84.4216 8.15013 85.8694 7.08511 88.259 7.08511C90.6486 7.08511 92.0564 8.15013 92.0564 9.83085C92.0564 10.9924 91.484 11.7013 90.4057 11.8644C91.5672 12.0407 92.2228 12.8761 92.2228 14.214L92.2195 14.2074Z" fill="#727272"/>
<path d="M101.618 13.6883C101.618 15.7218 100.033 17.0763 97.6438 17.0763C94.8981 17.0763 93.4237 15.5188 93.4237 12.57C93.4237 8.95229 94.9247 7.08186 97.7536 7.08186C99.8038 7.08186 101.168 8.13356 101.415 9.89416H99.228C99.0217 9.26514 98.5058 8.93898 97.6837 8.93898C96.3858 8.93898 95.7168 9.78433 95.6369 11.6281C96.1561 11.0956 97.0847 10.7528 98.0665 10.7528C100.293 10.7528 101.618 11.8445 101.618 13.6883ZM99.4177 13.7282C99.4177 12.8828 98.802 12.4036 97.6571 12.4036C96.632 12.4036 95.6236 12.9095 95.6236 13.4952C95.6236 14.5602 96.3891 15.2159 97.5905 15.2159C98.6955 15.2159 99.421 14.6301 99.421 13.7282H99.4177Z" fill="#727272"/>
<path d="M102.793 12.0775C102.793 8.66282 104.241 7.07861 107.326 7.07861C110.411 7.07861 111.859 8.66282 111.859 12.0775C111.859 15.4922 110.411 17.0764 107.326 17.0764C104.241 17.0764 102.793 15.4922 102.793 12.0775ZM109.663 12.0775C109.663 9.89091 108.967 9.05887 107.326 9.05887C105.685 9.05887 104.99 9.89091 104.99 12.0775C104.99 14.2641 105.672 15.0962 107.326 15.0962C108.98 15.0962 109.663 14.2641 109.663 12.0775Z" fill="#727272"/>
<path d="M31.6101 13.4282L30.7214 7.29774H32.908L33.8499 13.7311C33.9997 14.7295 34.246 15.0956 34.7385 15.0956C35.2311 15.0956 35.4907 14.7262 35.6405 13.7311L36.569 7.29774H38.7689L39.7108 13.7311C39.8606 14.7295 40.1068 15.0956 40.5994 15.0956C41.092 15.0956 41.3516 14.7262 41.5013 13.7311L42.4299 7.29774H44.6298L43.7279 13.4282C43.3185 16.1174 42.5397 17.0759 40.7359 17.0759C38.932 17.0759 38.1399 16.0508 37.9502 13.6079L37.7039 10.7391H37.6507L37.3911 13.6079C37.2014 16.0508 36.366 17.0759 34.6054 17.0759C32.8448 17.0759 32.0261 16.1207 31.6134 13.4282H31.6101Z" fill="#DADADA"/>
<path d="M54.4181 16.8562H52.2315L51.8754 14.4133H47.9549L47.5987 16.8562H45.4121L46.2875 10.8056C46.7101 8.07315 47.6653 7.07803 49.9052 7.07803C52.145 7.07803 53.1135 8.07648 53.5229 10.8056L54.4115 16.8562H54.4181ZM51.5759 12.4164L51.3696 10.982C51.1499 9.53421 50.7971 9.05496 49.9085 9.05496C49.0199 9.05496 48.6804 9.53421 48.4607 10.982L48.2544 12.4164H51.5759Z" fill="#DADADA"/>
<path d="M59.8127 16.8562H57.6128V9.278H54.6907V7.29774H62.7349V9.278H59.8127V16.8562Z" fill="#DADADA"/>
<path d="M63.6637 12.0769C63.6637 8.66223 65.1115 7.07803 68.1967 7.07803C70.9291 7.07803 72.3469 8.27949 72.6631 10.9154H70.4498C70.2169 9.63073 69.5479 9.05828 68.1967 9.05828C66.5592 9.05828 65.8603 9.90364 65.8603 12.0769C65.8603 14.2502 66.5559 15.0956 68.1967 15.0956C69.5479 15.0956 70.2169 14.5231 70.4498 13.2385H72.6631C72.3502 15.8744 70.9291 17.0758 68.1967 17.0758C65.1115 17.0758 63.6637 15.4916 63.6637 12.0769Z" fill="#DADADA"/>
<path d="M80.394 10.9422V7.29449H82.5939V16.853H80.394V12.9324H76.5034V16.853H74.3034V7.29449H76.5034V10.9422H80.394Z" fill="#DADADA"/>
<path d="M12.0186 23.9957C11.4062 23.9957 10.7905 23.9491 10.1715 23.8559C7.00639 23.37 4.22072 21.686 2.32367 19.1066C0.429947 16.5273 -0.342186 13.3689 0.140397 10.2071C1.1455 3.68393 7.27597 -0.812415 13.8125 0.196018C15.3468 0.432317 16.7978 0.95151 18.1291 1.74028C18.6183 2.02983 18.7781 2.66219 18.4852 3.15143C18.1923 3.64066 17.56 3.79709 17.0708 3.50754C15.9691 2.85189 14.7677 2.42256 13.4963 2.2262C8.08805 1.40081 3.00927 5.11837 2.18056 10.52C1.77785 13.1392 2.42352 15.7518 3.99108 17.8885C5.55864 20.0219 7.86839 21.4197 10.491 21.8224C15.9059 22.6544 20.9813 18.9302 21.8134 13.532C22.0064 12.2673 21.9565 10.9892 21.6603 9.74451C21.5272 9.19204 21.8733 8.63623 22.4258 8.50644C22.9816 8.37664 23.534 8.71944 23.6638 9.27191C24.0199 10.7762 24.0832 12.3139 23.8469 13.8448C23.361 17.0032 21.6703 19.7856 19.0909 21.6793C17.0142 23.2003 14.5547 23.999 12.0219 23.999L12.0186 23.9957ZM12.7242 15.1727L26.16 1.75693C26.5627 1.35422 26.5627 0.705226 26.16 0.302519C25.7572 -0.100189 25.1049 -0.100189 24.7022 0.302519L11.992 12.9895L7.87171 8.87586C7.46901 8.47315 6.81669 8.47315 6.41398 8.87586C6.01127 9.27857 6.01127 9.92756 6.41398 10.3303L11.2631 15.1694C11.4628 15.3691 11.7291 15.4723 11.9886 15.4723C12.2482 15.4723 12.5145 15.3724 12.7142 15.1694H12.7208L12.7242 15.1727Z" fill="#DADADA"/>
<path opacity="0.5" d="M31.5284 29V24.6364H33.0028C33.3452 24.6364 33.625 24.6982 33.8423 24.8217C34.0611 24.9439 34.223 25.1094 34.3281 25.3182C34.4332 25.527 34.4858 25.7599 34.4858 26.017C34.4858 26.2741 34.4332 26.5078 34.3281 26.718C34.2244 26.9283 34.0639 27.0959 33.8466 27.2209C33.6293 27.3445 33.3509 27.4062 33.0114 27.4062H31.9545V26.9375H32.9943C33.2287 26.9375 33.4169 26.897 33.5589 26.8161C33.701 26.7351 33.804 26.6257 33.8679 26.4879C33.9332 26.3487 33.9659 26.1918 33.9659 26.017C33.9659 25.8423 33.9332 25.6861 33.8679 25.5483C33.804 25.4105 33.7003 25.3026 33.5568 25.2244C33.4134 25.1449 33.223 25.1051 32.9858 25.1051H32.0568V29H31.5284ZM36.6832 29.0682C36.3878 29.0682 36.1285 28.9979 35.9055 28.8572C35.6839 28.7166 35.5106 28.5199 35.3856 28.267C35.262 28.0142 35.2003 27.7187 35.2003 27.3807C35.2003 27.0398 35.262 26.7422 35.3856 26.4879C35.5106 26.2337 35.6839 26.0362 35.9055 25.8956C36.1285 25.755 36.3878 25.6847 36.6832 25.6847C36.9787 25.6847 37.2372 25.755 37.4588 25.8956C37.6818 26.0362 37.8551 26.2337 37.9787 26.4879C38.1037 26.7422 38.1662 27.0398 38.1662 27.3807C38.1662 27.7187 38.1037 28.0142 37.9787 28.267C37.8551 28.5199 37.6818 28.7166 37.4588 28.8572C37.2372 28.9979 36.9787 29.0682 36.6832 29.0682ZM36.6832 28.6165C36.9076 28.6165 37.0923 28.5589 37.2372 28.4439C37.3821 28.3288 37.4893 28.1776 37.5589 27.9901C37.6285 27.8026 37.6633 27.5994 37.6633 27.3807C37.6633 27.1619 37.6285 26.9581 37.5589 26.7692C37.4893 26.5803 37.3821 26.4276 37.2372 26.3111C37.0923 26.1946 36.9076 26.1364 36.6832 26.1364C36.4588 26.1364 36.2741 26.1946 36.1292 26.3111C35.9843 26.4276 35.8771 26.5803 35.8075 26.7692C35.7379 26.9581 35.7031 27.1619 35.7031 27.3807C35.7031 27.5994 35.7379 27.8026 35.8075 27.9901C35.8771 28.1776 35.9843 28.3288 36.1292 28.4439C36.2741 28.5589 36.4588 28.6165 36.6832 28.6165ZM39.6839 29L38.6867 25.7273H39.2151L39.9225 28.233H39.9566L40.6555 25.7273H41.1924L41.8828 28.2244H41.9168L42.6242 25.7273H43.1526L42.1555 29H41.6612L40.9453 26.4858H40.8941L40.1782 29H39.6839ZM45.1982 29.0682C44.8829 29.0682 44.6109 28.9986 44.3822 28.8594C44.1549 28.7188 43.9795 28.5227 43.8559 28.2713C43.7338 28.0185 43.6727 27.7244 43.6727 27.3892C43.6727 27.054 43.7338 26.7585 43.8559 26.5028C43.9795 26.2457 44.1514 26.0455 44.3715 25.902C44.5931 25.7571 44.8517 25.6847 45.1471 25.6847C45.3176 25.6847 45.4859 25.7131 45.6521 25.7699C45.8183 25.8267 45.9696 25.919 46.1059 26.0469C46.2423 26.1733 46.3509 26.3409 46.4319 26.5497C46.5129 26.7585 46.5534 27.0156 46.5534 27.321V27.5341H44.0306V27.0994H46.042C46.042 26.9148 46.0051 26.75 45.9312 26.6051C45.8588 26.4602 45.7551 26.3459 45.6201 26.2621C45.4866 26.1783 45.3289 26.1364 45.1471 26.1364C44.9468 26.1364 44.7735 26.1861 44.6272 26.2855C44.4823 26.3835 44.3708 26.5114 44.2927 26.669C44.2146 26.8267 44.1755 26.9957 44.1755 27.1761V27.4659C44.1755 27.7131 44.2181 27.9226 44.3034 28.0945C44.39 28.2649 44.51 28.3949 44.6634 28.4844C44.8169 28.5724 44.9951 28.6165 45.1982 28.6165C45.3303 28.6165 45.4497 28.598 45.5562 28.5611C45.6642 28.5227 45.7572 28.4659 45.8353 28.3906C45.9134 28.3139 45.9738 28.2187 46.0164 28.1051L46.5022 28.2415C46.4511 28.4062 46.3651 28.5511 46.2444 28.6761C46.1237 28.7997 45.9745 28.8963 45.797 28.9659C45.6194 29.0341 45.4198 29.0682 45.1982 29.0682ZM47.4383 29V25.7273H47.9241V26.2216H47.9582C48.0178 26.0597 48.1258 25.9283 48.282 25.8274C48.4383 25.7266 48.6144 25.6761 48.8104 25.6761C48.8474 25.6761 48.8935 25.6768 48.9489 25.6783C49.0043 25.6797 49.0462 25.6818 49.0746 25.6847V26.196C49.0576 26.1918 49.0185 26.1854 48.9574 26.1768C48.8978 26.1669 48.8346 26.1619 48.7678 26.1619C48.6087 26.1619 48.4667 26.1953 48.3417 26.2621C48.2181 26.3274 48.1201 26.4183 48.0476 26.5348C47.9766 26.6499 47.9411 26.7812 47.9411 26.929V29H47.4383ZM51.0632 29.0682C50.7479 29.0682 50.4759 28.9986 50.2472 28.8594C50.0199 28.7188 49.8445 28.5227 49.7209 28.2713C49.5988 28.0185 49.5377 27.7244 49.5377 27.3892C49.5377 27.054 49.5988 26.7585 49.7209 26.5028C49.8445 26.2457 50.0164 26.0455 50.2365 25.902C50.4581 25.7571 50.7167 25.6847 51.0121 25.6847C51.1826 25.6847 51.3509 25.7131 51.5171 25.7699C51.6833 25.8267 51.8346 25.919 51.9709 26.0469C52.1073 26.1733 52.2159 26.3409 52.2969 26.5497C52.3779 26.7585 52.4184 27.0156 52.4184 27.321V27.5341H49.8956V27.0994H51.907C51.907 26.9148 51.8701 26.75 51.7962 26.6051C51.7238 26.4602 51.6201 26.3459 51.4851 26.2621C51.3516 26.1783 51.1939 26.1364 51.0121 26.1364C50.8118 26.1364 50.6385 26.1861 50.4922 26.2855C50.3473 26.3835 50.2358 26.5114 50.1577 26.669C50.0796 26.8267 50.0405 26.9957 50.0405 27.1761V27.4659C50.0405 27.7131 50.0831 27.9226 50.1684 28.0945C50.255 28.2649 50.375 28.3949 50.5284 28.4844C50.6819 28.5724 50.8601 28.6165 51.0632 28.6165C51.1953 28.6165 51.3147 28.598 51.4212 28.5611C51.5292 28.5227 51.6222 28.4659 51.7003 28.3906C51.7784 28.3139 51.8388 28.2187 51.8814 28.1051L52.3672 28.2415C52.3161 28.4062 52.2301 28.5511 52.1094 28.6761C51.9887 28.7997 51.8395 28.8963 51.662 28.9659C51.4844 29.0341 51.2848 29.0682 51.0632 29.0682ZM54.5391 29.0682C54.2663 29.0682 54.0256 28.9993 53.8168 28.8615C53.608 28.7223 53.4446 28.5263 53.3267 28.2734C53.2088 28.0192 53.1499 27.7188 53.1499 27.3722C53.1499 27.0284 53.2088 26.7301 53.3267 26.4773C53.4446 26.2244 53.6087 26.0291 53.8189 25.8913C54.0291 25.7536 54.272 25.6847 54.5476 25.6847C54.7607 25.6847 54.929 25.7202 55.0526 25.7912C55.1776 25.8608 55.2727 25.9403 55.3381 26.0298C55.4048 26.1179 55.4567 26.1903 55.4936 26.2472H55.5362V24.6364H56.0391V29H55.5533V28.4972H55.4936C55.4567 28.5568 55.4041 28.6321 55.3359 28.723C55.2678 28.8125 55.1705 28.8928 55.044 28.9638C54.9176 29.0334 54.7493 29.0682 54.5391 29.0682ZM54.6073 28.6165C54.809 28.6165 54.9794 28.5639 55.1186 28.4588C55.2578 28.3523 55.3636 28.2053 55.4361 28.0178C55.5085 27.8288 55.5448 27.6108 55.5448 27.3636C55.5448 27.1193 55.5092 26.9055 55.4382 26.7223C55.3672 26.5376 55.2621 26.3942 55.1229 26.2919C54.9837 26.1882 54.8118 26.1364 54.6073 26.1364C54.3942 26.1364 54.2166 26.1911 54.0746 26.3004C53.934 26.4084 53.8281 26.5554 53.7571 26.7415C53.6875 26.9261 53.6527 27.1335 53.6527 27.3636C53.6527 27.5966 53.6882 27.8082 53.7592 27.9986C53.8317 28.1875 53.9382 28.3381 54.0788 28.4503C54.2209 28.5611 54.397 28.6165 54.6073 28.6165ZM59.0255 29V24.6364H59.5284V26.2472H59.571C59.6079 26.1903 59.659 26.1179 59.7244 26.0298C59.7911 25.9403 59.8863 25.8608 60.0099 25.7912C60.1349 25.7202 60.3039 25.6847 60.517 25.6847C60.7926 25.6847 61.0355 25.7536 61.2457 25.8913C61.4559 26.0291 61.62 26.2244 61.7379 26.4773C61.8558 26.7301 61.9147 27.0284 61.9147 27.3722C61.9147 27.7188 61.8558 28.0192 61.7379 28.2734C61.62 28.5263 61.4566 28.7223 61.2478 28.8615C61.039 28.9993 60.7982 29.0682 60.5255 29.0682C60.3153 29.0682 60.147 29.0334 60.0205 28.9638C59.8941 28.8928 59.7968 28.8125 59.7286 28.723C59.6605 28.6321 59.6079 28.5568 59.571 28.4972H59.5113V29H59.0255ZM59.5198 27.3636C59.5198 27.6108 59.5561 27.8288 59.6285 28.0178C59.7009 28.2053 59.8068 28.3523 59.946 28.4588C60.0852 28.5639 60.2556 28.6165 60.4573 28.6165C60.6676 28.6165 60.843 28.5611 60.9836 28.4503C61.1257 28.3381 61.2322 28.1875 61.3032 27.9986C61.3757 27.8082 61.4119 27.5966 61.4119 27.3636C61.4119 27.1335 61.3764 26.9261 61.3053 26.7415C61.2357 26.5554 61.1299 26.4084 60.9879 26.3004C60.8473 26.1911 60.6704 26.1364 60.4573 26.1364C60.2528 26.1364 60.0809 26.1882 59.9417 26.2919C59.8025 26.3942 59.6974 26.5376 59.6264 26.7223C59.5553 26.9055 59.5198 27.1193 59.5198 27.3636ZM63.0106 30.2273C62.9253 30.2273 62.8494 30.2202 62.7826 30.206C62.7158 30.1932 62.6697 30.1804 62.6441 30.1676L62.7719 29.7244C62.8941 29.7557 63.0021 29.767 63.0958 29.7585C63.1896 29.75 63.2726 29.7081 63.3451 29.6328C63.419 29.5589 63.4864 29.4389 63.5475 29.2727L63.6413 29.017L62.431 25.7273H62.9765L63.8799 28.3352H63.914L64.8174 25.7273H65.3628L63.9736 29.4773C63.9111 29.6463 63.8337 29.7862 63.7414 29.897C63.6491 30.0092 63.5418 30.0923 63.4197 30.1463C63.2989 30.2003 63.1626 30.2273 63.0106 30.2273ZM70.4086 25.7273C70.383 25.5114 70.2793 25.3438 70.0975 25.2244C69.9157 25.1051 69.6927 25.0455 69.4285 25.0455C69.2353 25.0455 69.0663 25.0767 68.9214 25.1392C68.7779 25.2017 68.6657 25.2876 68.5847 25.397C68.5052 25.5064 68.4654 25.6307 68.4654 25.7699C68.4654 25.8864 68.4931 25.9865 68.5485 26.0703C68.6053 26.1527 68.6778 26.2216 68.7658 26.277C68.8539 26.331 68.9462 26.3757 69.0428 26.4112C69.1394 26.4453 69.2282 26.473 69.3092 26.4943L69.7524 26.6136C69.866 26.6435 69.9924 26.6847 70.1316 26.7372C70.2722 26.7898 70.4065 26.8615 70.5343 26.9524C70.6636 27.0419 70.7701 27.157 70.8539 27.2976C70.9377 27.4382 70.9796 27.6108 70.9796 27.8153C70.9796 28.0511 70.9178 28.2642 70.7943 28.4545C70.6721 28.6449 70.4931 28.7962 70.2573 28.9084C70.0229 29.0206 69.7381 29.0767 69.4029 29.0767C69.0904 29.0767 68.8198 29.0263 68.5911 28.9254C68.3639 28.8246 68.1849 28.6839 68.0542 28.5036C67.9249 28.3232 67.8518 28.1136 67.8347 27.875H68.3802C68.3944 28.0398 68.4498 28.1761 68.5464 28.2841C68.6444 28.3906 68.768 28.4702 68.9171 28.5227C69.0677 28.5739 69.2296 28.5994 69.4029 28.5994C69.6046 28.5994 69.7857 28.5668 69.9462 28.5014C70.1068 28.4347 70.2339 28.3423 70.3276 28.2244C70.4214 28.1051 70.4683 27.9659 70.4683 27.8068C70.4683 27.6619 70.4278 27.544 70.3468 27.4531C70.2658 27.3622 70.1593 27.2884 70.0272 27.2315C69.8951 27.1747 69.7524 27.125 69.5989 27.0824L69.062 26.929C68.7211 26.831 68.4512 26.6911 68.2524 26.5092C68.0535 26.3274 67.9541 26.0895 67.9541 25.7955C67.9541 25.5511 68.0201 25.3381 68.1522 25.1562C68.2857 24.973 68.4647 24.831 68.6891 24.7301C68.915 24.6278 69.1671 24.5767 69.4455 24.5767C69.7268 24.5767 69.9768 24.6271 70.1955 24.728C70.4143 24.8274 70.5876 24.9638 70.7154 25.1371C70.8447 25.3104 70.9129 25.5071 70.92 25.7273H70.4086ZM73.2724 29.0682C72.957 29.0682 72.685 28.9986 72.4563 28.8594C72.2291 28.7188 72.0536 28.5227 71.9301 28.2713C71.8079 28.0185 71.7468 27.7244 71.7468 27.3892C71.7468 27.054 71.8079 26.7585 71.9301 26.5028C72.0536 26.2457 72.2255 26.0455 72.4457 25.902C72.6673 25.7571 72.9258 25.6847 73.2212 25.6847C73.3917 25.6847 73.56 25.7131 73.7262 25.7699C73.8924 25.8267 74.0437 25.919 74.1801 26.0469C74.3164 26.1733 74.4251 26.3409 74.506 26.5497C74.587 26.7585 74.6275 27.0156 74.6275 27.321V27.5341H72.1048V27.0994H74.1161C74.1161 26.9148 74.0792 26.75 74.0053 26.6051C73.9329 26.4602 73.8292 26.3459 73.6943 26.2621C73.5607 26.1783 73.4031 26.1364 73.2212 26.1364C73.021 26.1364 72.8477 26.1861 72.7014 26.2855C72.5565 26.3835 72.445 26.5114 72.3668 26.669C72.2887 26.8267 72.2497 26.9957 72.2497 27.1761V27.4659C72.2497 27.7131 72.2923 27.9226 72.3775 28.0945C72.4641 28.2649 72.5842 28.3949 72.7376 28.4844C72.891 28.5724 73.0693 28.6165 73.2724 28.6165C73.4045 28.6165 73.5238 28.598 73.6303 28.5611C73.7383 28.5227 73.8313 28.4659 73.9095 28.3906C73.9876 28.3139 74.048 28.2187 74.0906 28.1051L74.5764 28.2415C74.5252 28.4062 74.4393 28.5511 74.3185 28.6761C74.1978 28.7997 74.0487 28.8963 73.8711 28.9659C73.6935 29.0341 73.494 29.0682 73.2724 29.0682ZM75.5124 29V25.7273H75.9982V26.2386H76.0408C76.109 26.0639 76.2191 25.9283 76.3711 25.8317C76.5231 25.7337 76.7056 25.6847 76.9187 25.6847C77.1346 25.6847 77.3143 25.7337 77.4577 25.8317C77.6026 25.9283 77.7155 26.0639 77.7965 26.2386H77.8306C77.9144 26.0696 78.0401 25.9354 78.2077 25.8359C78.3753 25.7351 78.5763 25.6847 78.8107 25.6847C79.1033 25.6847 79.3427 25.7763 79.5288 25.9595C79.7148 26.1413 79.8079 26.4247 79.8079 26.8097V29H79.305V26.8097C79.305 26.5682 79.239 26.3956 79.1069 26.2919C78.9748 26.1882 78.8192 26.1364 78.6403 26.1364C78.4101 26.1364 78.2319 26.206 78.1055 26.3452C77.979 26.483 77.9158 26.6577 77.9158 26.8693V29H77.4045V26.7585C77.4045 26.5724 77.3441 26.4226 77.2234 26.3089C77.1026 26.1939 76.9471 26.1364 76.7567 26.1364C76.6261 26.1364 76.5039 26.1712 76.3903 26.2408C76.278 26.3104 76.1871 26.407 76.1175 26.5305C76.0493 26.6527 76.0153 26.794 76.0153 26.9545V29H75.5124ZM81.8103 29.0767C81.6029 29.0767 81.4147 29.0376 81.2457 28.9595C81.0767 28.88 80.9424 28.7656 80.843 28.6165C80.7436 28.4659 80.6938 28.2841 80.6938 28.071C80.6938 27.8835 80.7308 27.7315 80.8046 27.6151C80.8785 27.4972 80.9772 27.4048 81.1008 27.3381C81.2244 27.2713 81.3608 27.2216 81.5099 27.1889C81.6605 27.1548 81.8117 27.1278 81.9637 27.108C82.1626 27.0824 82.3238 27.0632 82.4474 27.0504C82.5724 27.0362 82.6633 27.0128 82.7201 26.9801C82.7784 26.9474 82.8075 26.8906 82.8075 26.8097V26.7926C82.8075 26.5824 82.75 26.419 82.6349 26.3026C82.5213 26.1861 82.3487 26.1278 82.1171 26.1278C81.8771 26.1278 81.6889 26.1804 81.5525 26.2855C81.4162 26.3906 81.3203 26.5028 81.2649 26.6222L80.7876 26.4517C80.8728 26.2528 80.9865 26.098 81.1285 25.9872C81.272 25.875 81.4282 25.7969 81.5973 25.7528C81.7677 25.7074 81.9353 25.6847 82.1001 25.6847C82.2052 25.6847 82.326 25.6974 82.4623 25.723C82.6001 25.7472 82.7329 25.7976 82.8608 25.8743C82.99 25.951 83.0973 26.0668 83.1825 26.2216C83.2677 26.3764 83.3103 26.5838 83.3103 26.8438V29H82.8075V28.5568H82.7819C82.7478 28.6278 82.691 28.7038 82.6115 28.7848C82.5319 28.8658 82.4261 28.9347 82.294 28.9915C82.1619 29.0483 82.0007 29.0767 81.8103 29.0767ZM81.887 28.625C82.0859 28.625 82.2535 28.5859 82.3899 28.5078C82.5277 28.4297 82.6313 28.3288 82.701 28.2053C82.772 28.0817 82.8075 27.9517 82.8075 27.8153V27.3551C82.7862 27.3807 82.7393 27.4041 82.6669 27.4254C82.5958 27.4453 82.5135 27.4631 82.4197 27.4787C82.3274 27.4929 82.2372 27.5057 82.1491 27.517C82.0625 27.527 81.9921 27.5355 81.9382 27.5426C81.8075 27.5597 81.6853 27.5874 81.5717 27.6257C81.4595 27.6626 81.3686 27.7187 81.299 27.794C81.2308 27.8679 81.1967 27.9687 81.1967 28.0966C81.1967 28.2713 81.2613 28.4034 81.3906 28.4929C81.5213 28.581 81.6867 28.625 81.887 28.625ZM84.851 27.0312V29H84.3481V25.7273H84.8339V26.2386H84.8765C84.9532 26.0724 85.0697 25.9389 85.226 25.8381C85.3822 25.7358 85.5839 25.6847 85.8311 25.6847C86.0527 25.6847 86.2466 25.7301 86.4127 25.821C86.5789 25.9105 86.7082 26.0469 86.8005 26.2301C86.8929 26.4119 86.939 26.642 86.939 26.9205V29H86.4362V26.9545C86.4362 26.6974 86.3694 26.4972 86.2359 26.3537C86.1024 26.2088 85.9191 26.1364 85.6862 26.1364C85.5257 26.1364 85.3822 26.1712 85.2558 26.2408C85.1308 26.3104 85.0321 26.4119 84.9596 26.5455C84.8872 26.679 84.851 26.8409 84.851 27.0312ZM89.4012 25.7273V26.1534H87.7052V25.7273H89.4012ZM88.1995 24.9432H88.7023V28.0625C88.7023 28.2045 88.7229 28.3111 88.7641 28.3821C88.8067 28.4517 88.8607 28.4986 88.926 28.5227C88.9928 28.5455 89.0631 28.5568 89.137 28.5568C89.1924 28.5568 89.2378 28.554 89.2733 28.5483C89.3088 28.5412 89.3373 28.5355 89.3586 28.5312L89.4608 28.983C89.4267 28.9957 89.3792 29.0085 89.3181 29.0213C89.257 29.0355 89.1796 29.0426 89.0858 29.0426C88.9438 29.0426 88.8046 29.0121 88.6682 28.951C88.5333 28.8899 88.4211 28.7969 88.3316 28.6719C88.2435 28.5469 88.1995 28.3892 88.1995 28.1989V24.9432ZM90.2776 29V25.7273H90.7804V29H90.2776ZM90.5333 25.1818C90.4352 25.1818 90.3507 25.1484 90.2797 25.0817C90.2101 25.0149 90.1753 24.9347 90.1753 24.8409C90.1753 24.7472 90.2101 24.6669 90.2797 24.6001C90.3507 24.5334 90.4352 24.5 90.5333 24.5C90.6313 24.5 90.7151 24.5334 90.7847 24.6001C90.8557 24.6669 90.8912 24.7472 90.8912 24.8409C90.8912 24.9347 90.8557 25.0149 90.7847 25.0817C90.7151 25.1484 90.6313 25.1818 90.5333 25.1818ZM93.1509 29.0682C92.8441 29.0682 92.5799 28.9957 92.3583 28.8509C92.1367 28.706 91.9663 28.5064 91.847 28.2521C91.7276 27.9979 91.668 27.7074 91.668 27.3807C91.668 27.0483 91.7291 26.755 91.8512 26.5007C91.9748 26.245 92.1467 26.0455 92.3669 25.902C92.5884 25.7571 92.847 25.6847 93.1424 25.6847C93.3725 25.6847 93.5799 25.7273 93.7646 25.8125C93.9492 25.8977 94.1005 26.017 94.2184 26.1705C94.3363 26.3239 94.4095 26.5028 94.4379 26.7074H93.935C93.8967 26.5582 93.8115 26.4261 93.6794 26.3111C93.5487 26.1946 93.3725 26.1364 93.1509 26.1364C92.9549 26.1364 92.783 26.1875 92.6353 26.2898C92.489 26.3906 92.3747 26.5334 92.2923 26.718C92.2113 26.9013 92.1708 27.1165 92.1708 27.3636C92.1708 27.6165 92.2106 27.8366 92.2901 28.0241C92.3711 28.2116 92.4848 28.3572 92.6311 28.4609C92.7788 28.5646 92.9521 28.6165 93.1509 28.6165C93.2816 28.6165 93.4002 28.5938 93.5068 28.5483C93.6133 28.5028 93.7035 28.4375 93.7774 28.3523C93.8512 28.267 93.9038 28.1648 93.935 28.0455H94.4379C94.4095 28.2386 94.3392 28.4126 94.2269 28.5675C94.1161 28.7209 93.9691 28.843 93.7859 28.9339C93.6041 29.0234 93.3924 29.0682 93.1509 29.0682ZM95.3611 29V24.6364H97.9776V25.1051H95.8896V26.5795H97.7816V27.0483H95.8896V29H95.3611ZM100.024 29.0682C99.7283 29.0682 99.4691 28.9979 99.2461 28.8572C99.0245 28.7166 98.8512 28.5199 98.7262 28.267C98.6026 28.0142 98.5408 27.7187 98.5408 27.3807C98.5408 27.0398 98.6026 26.7422 98.7262 26.4879C98.8512 26.2337 99.0245 26.0362 99.2461 25.8956C99.4691 25.755 99.7283 25.6847 100.024 25.6847C100.319 25.6847 100.578 25.755 100.799 25.8956C101.022 26.0362 101.196 26.2337 101.319 26.4879C101.444 26.7422 101.507 27.0398 101.507 27.3807C101.507 27.7187 101.444 28.0142 101.319 28.267C101.196 28.5199 101.022 28.7166 100.799 28.8572C100.578 28.9979 100.319 29.0682 100.024 29.0682ZM100.024 28.6165C100.248 28.6165 100.433 28.5589 100.578 28.4439C100.723 28.3288 100.83 28.1776 100.899 27.9901C100.969 27.8026 101.004 27.5994 101.004 27.3807C101.004 27.1619 100.969 26.9581 100.899 26.7692C100.83 26.5803 100.723 26.4276 100.578 26.3111C100.433 26.1946 100.248 26.1364 100.024 26.1364C99.7993 26.1364 99.6147 26.1946 99.4698 26.3111C99.3249 26.4276 99.2177 26.5803 99.148 26.7692C99.0784 26.9581 99.0436 27.1619 99.0436 27.3807C99.0436 27.5994 99.0784 27.8026 99.148 27.9901C99.2177 28.1776 99.3249 28.3288 99.4698 28.4439C99.6147 28.5589 99.7993 28.6165 100.024 28.6165ZM102.394 29V25.7273H102.88V26.2216H102.914C102.974 26.0597 103.082 25.9283 103.238 25.8274C103.394 25.7266 103.57 25.6761 103.766 25.6761C103.803 25.6761 103.85 25.6768 103.905 25.6783C103.96 25.6797 104.002 25.6818 104.031 25.6847V26.196C104.014 26.1918 103.975 26.1854 103.913 26.1768C103.854 26.1669 103.791 26.1619 103.724 26.1619C103.565 26.1619 103.423 26.1953 103.298 26.2621C103.174 26.3274 103.076 26.4183 103.004 26.5348C102.933 26.6499 102.897 26.7812 102.897 26.929V29H102.394ZM105.977 29.0682C105.67 29.0682 105.406 28.9957 105.184 28.8509C104.962 28.706 104.792 28.5064 104.673 28.2521C104.553 27.9979 104.494 27.7074 104.494 27.3807C104.494 27.0483 104.555 26.755 104.677 26.5007C104.801 26.245 104.972 26.0455 105.193 25.902C105.414 25.7571 105.673 25.6847 105.968 25.6847C106.198 25.6847 106.406 25.7273 106.59 25.8125C106.775 25.8977 106.926 26.017 107.044 26.1705C107.162 26.3239 107.235 26.5028 107.264 26.7074H106.761C106.722 26.5582 106.637 26.4261 106.505 26.3111C106.374 26.1946 106.198 26.1364 105.977 26.1364C105.781 26.1364 105.609 26.1875 105.461 26.2898C105.315 26.3906 105.2 26.5334 105.118 26.718C105.037 26.9013 104.997 27.1165 104.997 27.3636C104.997 27.6165 105.036 27.8366 105.116 28.0241C105.197 28.2116 105.31 28.3572 105.457 28.4609C105.604 28.5646 105.778 28.6165 105.977 28.6165C106.107 28.6165 106.226 28.5938 106.332 28.5483C106.439 28.5028 106.529 28.4375 106.603 28.3523C106.677 28.267 106.729 28.1648 106.761 28.0455H107.264C107.235 28.2386 107.165 28.4126 107.053 28.5675C106.942 28.7209 106.795 28.843 106.612 28.9339C106.43 29.0234 106.218 29.0682 105.977 29.0682ZM109.491 29.0682C109.175 29.0682 108.903 28.9986 108.675 28.8594C108.448 28.7188 108.272 28.5227 108.148 28.2713C108.026 28.0185 107.965 27.7244 107.965 27.3892C107.965 27.054 108.026 26.7585 108.148 26.5028C108.272 26.2457 108.444 26.0455 108.664 25.902C108.886 25.7571 109.144 25.6847 109.44 25.6847C109.61 25.6847 109.778 25.7131 109.945 25.7699C110.111 25.8267 110.262 25.919 110.398 26.0469C110.535 26.1733 110.644 26.3409 110.724 26.5497C110.805 26.7585 110.846 27.0156 110.846 27.321V27.5341H108.323V27.0994H110.335C110.335 26.9148 110.298 26.75 110.224 26.6051C110.151 26.4602 110.048 26.3459 109.913 26.2621C109.779 26.1783 109.622 26.1364 109.44 26.1364C109.239 26.1364 109.066 26.1861 108.92 26.2855C108.775 26.3835 108.663 26.5114 108.585 26.669C108.507 26.8267 108.468 26.9957 108.468 27.1761V27.4659C108.468 27.7131 108.511 27.9226 108.596 28.0945C108.683 28.2649 108.803 28.3949 108.956 28.4844C109.109 28.5724 109.288 28.6165 109.491 28.6165C109.623 28.6165 109.742 28.598 109.849 28.5611C109.957 28.5227 110.05 28.4659 110.128 28.3906C110.206 28.3139 110.266 28.2187 110.309 28.1051L110.795 28.2415C110.744 28.4062 110.658 28.5511 110.537 28.6761C110.416 28.7997 110.267 28.8963 110.09 28.9659C109.912 29.0341 109.712 29.0682 109.491 29.0682Z" fill="white"/>
</svg>
