<svg width="70" height="24" viewBox="0 0 70 24" fill="none" xmlns="http://www.w3.org/2000/svg">
<g clip-path="url(#clip0_160_3948)">
<mask id="mask0_160_3948" style="mask-type:luminance" maskUnits="userSpaceOnUse" x="0" y="0" width="70" height="24">
<path d="M69.0667 0H0.266667V23.6177H69.0667V0Z" fill="white"/>
</mask>
<g mask="url(#mask0_160_3948)">
<path d="M14.3723 5.61461C14.1851 5.19042 14.0259 4.90236 13.8095 4.49639C12.7764 2.5553 11.2874 1.11741 9.10811 0.585033C7.21195 0.121944 5.38512 0.397854 3.771 1.54647C1.97698 2.82513 1.74361 5.37514 3.22161 7.10357C3.991 8.00421 4.97187 8.63141 6.01963 9.14554C7.55595 9.90032 9.11904 10.5993 10.659 11.3443C11.838 11.9143 12.9623 12.5756 13.9237 13.4823C15.3349 14.8132 15.8575 16.4481 15.6011 18.3515C15.2681 20.8176 13.756 22.2531 11.4868 22.992C9.88597 23.5135 8.23173 23.6314 6.55803 23.5269C5.14811 23.4381 3.75884 23.234 2.4109 22.7988C1.70593 22.5703 1.02649 22.2859 0.439416 21.8228C0.364057 21.7645 0.289914 21.649 0.288699 21.5603C0.28019 20.1005 0.282621 18.6407 0.283837 17.181C0.283837 17.1566 0.29356 17.1323 0.309361 17.0582C0.418753 17.3924 0.503835 17.6878 0.610795 17.9747C1.33764 19.9303 2.51786 21.5214 4.43221 22.4403C6.58843 23.4758 8.79205 23.5038 10.9641 22.4804C12.5418 21.7365 13.3549 20.1722 13.2066 18.4317C13.0741 16.871 12.2841 15.7175 11.0881 14.7877C10.0829 14.0074 8.95131 13.447 7.80635 12.9098C6.31861 12.2109 4.79077 11.5959 3.38691 10.7281C2.49233 10.175 1.66825 9.53936 1.07267 8.6545C-0.336049 6.56144 0.152567 3.428 2.14228 1.75674C3.23498 0.839065 4.51851 0.346805 5.90656 0.151116C8.38245 -0.198938 10.8122 0.0733257 13.1835 0.85122C13.5506 0.97155 14.027 1.20006 14.3723 1.42249V5.61461Z" fill="white"/>
<path d="M17.4628 10.7725C18.3915 9.71263 19.4683 8.90559 20.7385 8.48746C22.2335 8.02559 23.7516 7.94415 25.2855 8.27716C27.1768 8.68799 28.385 9.96788 28.6718 11.9066C28.7447 12.4 28.7764 12.9032 28.7788 13.4015C28.7897 15.7693 28.7812 18.137 28.7861 20.5047C28.7861 20.7916 28.797 21.0845 28.8517 21.3653C29.0158 22.2076 29.6916 22.7254 30.467 22.3364C30.5716 22.2842 30.6834 22.1906 30.8268 22.0568C30.8268 22.0568 30.794 22.2829 30.7004 22.4349C30.2677 23.1435 29.4436 23.4668 28.6147 23.4717C27.2655 23.4802 26.5776 22.6148 26.3722 21.3215C26.3467 21.3823 26.2932 21.4589 26.2227 21.5464C25.0923 22.7752 23.6799 23.3987 22.0257 23.5191C21.2369 23.5762 20.4516 23.5944 19.6665 23.462C17.0678 23.0231 16.5342 20.9398 17.0909 19.1677C17.4373 18.0641 18.1495 17.2619 19.0988 16.6274C20.1709 15.9115 21.3426 15.4059 22.5167 14.8941C23.3918 14.5125 24.2682 14.115 25.0923 13.6349C26.3284 12.9142 26.7198 11.7571 26.5253 10.3848C26.3649 9.25439 25.4642 8.54458 24.2682 8.43759C22.7562 8.30271 21.4823 8.79983 20.3544 9.74303C19.2751 10.6449 18.2116 12.1922 17.4628 13.3736M26.3394 13.5839C25.7486 13.816 25.2005 14.0178 24.6644 14.2463C23.387 14.7896 22.1642 15.4277 21.1359 16.3807C19.9108 17.5159 19.303 18.8918 19.5085 20.591C19.6908 22.1067 20.8078 23.1277 22.3295 23.101C23.4745 23.0803 24.4736 22.6427 25.3548 21.9317C26.0161 21.3981 26.3709 20.7405 26.3527 19.8447L26.3406 13.5851L26.3394 13.5839Z" fill="white"/>
<path d="M42.5068 10.2585C41.5551 9.17794 40.6216 8.43288 38.8057 8.43651C36.7261 8.47544 34.9272 9.74802 33.99 11.8277C32.6883 14.7156 33.251 17.5975 34.5127 19.5519C35.7743 21.5064 38.9674 23.4195 41.628 22.3329C42.5275 21.9658 43.2531 21.3606 43.8851 20.6361C44.0018 20.5024 44.1148 20.3651 44.2473 20.2095L44.4345 20.3469C43.6773 21.5149 42.6891 22.4143 41.4129 22.9236C38.723 23.9969 36.1256 23.8085 33.7263 22.119C32.4573 21.2256 31.7026 19.9397 31.3185 18.4495C30.825 16.5327 30.7982 14.6135 31.5336 12.749C32.5607 10.1442 34.5151 8.63341 37.2572 8.19709C39.163 7.82637 41.4031 8.18493 42.8058 9.1804C43.9556 9.9972 44.1404 10.2877 44.1404 10.2877C44.1489 11.2297 44.1404 12.0161 44.1404 12.9848C44.1404 12.9848 43.4573 11.3415 42.5056 10.2597L42.5068 10.2585Z" fill="white"/>
<path d="M68.2432 22.6927C67.2235 23.2798 66.1067 23.4694 64.9541 23.3174C63.5808 23.1364 62.7093 22.2782 62.4517 20.9108C62.3728 20.4891 62.3424 20.0527 62.3408 19.6225C62.3312 16.5595 62.3376 14.4677 62.3349 11.4047C62.3349 11.1166 62.3616 10.8213 62.3349 10.5345C62.3349 9.24971 61.6432 8.69424 60.6517 8.69424C60.4075 8.69424 60.1323 8.70272 59.8784 8.6967C59.5579 8.68939 60.0549 8.69424 59.7376 8.69424V8.3831C60.6709 8.26155 61.7915 8.03062 62.5888 7.50672C63.6304 6.82123 64.1568 5.80267 64.4256 4.62244C64.4741 4.40852 64.5237 4.18123 64.5445 3.97339H64.7819V8.3831H67.8032V8.69179H64.7792V8.9823C64.7792 12.478 64.7803 15.9748 64.7781 19.4705C64.7781 20.0369 64.8427 20.5875 65.1003 21.1005C65.4709 21.8407 66.0859 22.2211 66.9003 22.2868C67.6464 22.3475 68.3237 22.1993 69.0688 21.6936C68.9957 21.9306 68.7611 22.4046 68.2432 22.6915V22.6927Z" fill="white"/>
<path d="M59.2395 20.2349C59.2395 20.2349 58.8629 20.6956 58.6523 20.918C56.5851 23.0974 53.7664 22.9977 51.6732 22.0642C49.8829 21.2085 48.7683 18.9235 48.473 16.5424L56.2507 15.26C58.0096 14.9915 58.5771 14.4421 58.8933 13.9012C59.9467 12.0974 58.536 9.50361 55.8592 8.5106C54.4032 7.96969 53.0807 7.99524 51.9553 8.18607C49.1986 8.64916 47.4629 10.1223 46.4139 12.7112C45.6713 14.5454 45.6859 16.4403 46.1526 18.3364C46.5245 19.8484 47.2733 21.1648 48.5604 22.0812C50.9865 23.8072 53.6304 23.998 56.3712 22.9296C57.6048 22.4483 58.6597 21.4455 59.3989 20.3504L59.2395 20.2349ZM48.434 14.182C48.5009 13.1597 48.7233 12.1692 49.184 11.243C50.0044 9.59481 51.1518 8.69049 52.9458 8.48628C53.4891 8.42431 53.9317 8.42553 54.5915 8.62729C55.88 9.02111 56.9595 9.82937 57.2133 11.1433C57.3835 12.0257 57.2693 12.834 57.0747 13.4782C56.9093 14.0264 56.2688 14.8565 55.6027 14.9975L48.4122 16.2032C48.3988 15.6818 48.3805 14.9756 48.434 14.1807V14.182Z" fill="white"/>
</g>
</g>
<defs>
<clipPath id="clip0_160_3948">
<rect width="69.3333" height="24" fill="white"/>
</clipPath>
</defs>
</svg>
