<svg width="30" height="30" viewBox="0 0 30 30" fill="none" xmlns="http://www.w3.org/2000/svg">
<path d="M29.3379 7.79018C29.1659 7.15424 28.8302 6.57447 28.3644 6.10862C27.8985 5.64276 27.3188 5.30706 26.6829 5.13495C24.3548 4.5 14.985 4.5 14.985 4.5C14.985 4.5 5.6148 4.51922 3.28672 5.15417C2.65079 5.32629 2.07105 5.662 1.60522 6.12788C1.13939 6.59376 0.803734 7.17355 0.631674 7.80951C-0.0725178 11.9462 -0.345686 18.2495 0.65101 22.2207C0.823088 22.8566 1.15875 23.4364 1.62458 23.9022C2.09041 24.3681 2.67014 24.7038 3.30605 24.8759C5.63414 25.5108 15.0041 25.5108 15.0041 25.5108C15.0041 25.5108 24.374 25.5108 26.702 24.8759C27.3379 24.7038 27.9177 24.3681 28.3835 23.9022C28.8494 23.4364 29.1851 22.8566 29.3572 22.2207C30.0999 18.0781 30.3288 11.7787 29.3379 7.79018Z" fill="#FF0000"/>
<path d="M12 19.4485L19.7728 14.964L12 10.4796V19.4485Z" fill="white"/>
</svg>
